<?xml version="1.0" encoding="UTF-8"?>
<svg version="1.1" xmlns="http://www.w3.org/2000/svg" width="568" height="568">
<path d="M0 0 C0.90991699 0.14501953 1.81983398 0.29003906 2.75732422 0.43945312 C59.23646751 9.53597193 111.08935295 38.68794547 152 78 C152.73259033 78.69971924 152.73259033 78.69971924 153.47998047 79.41357422 C160.2156852 85.87776918 166.20768877 92.69042768 172 100 C172.94453312 101.14494947 173.8912604 102.28809137 174.83984375 103.4296875 C186.72821658 117.83287129 196.33026766 133.48559043 205 150 C205.43280273 150.81017578 205.86560547 151.62035156 206.31152344 152.45507812 C219.46443534 177.33896551 228.57256217 205.22028733 233 233 C233.15791016 233.88800293 233.31582031 234.77600586 233.47851562 235.69091797 C238.71806482 265.62426847 238.31410051 299.11631846 233 329 C232.85498047 329.90991699 232.70996094 330.81983398 232.56054688 331.75732422 C223.46402807 388.23646751 194.31205453 440.08935295 155 481 C154.53352051 481.48839355 154.06704102 481.97678711 153.58642578 482.47998047 C147.12223082 489.2156852 140.30957232 495.20768877 133 501 C131.85505053 501.94453312 130.71190863 502.8912604 129.5703125 503.83984375 C115.16712871 515.72821658 99.51440957 525.33026766 83 534 C82.18982422 534.43280273 81.37964844 534.86560547 80.54492188 535.31152344 C55.66103449 548.46443534 27.77971267 557.57256217 0 562 C-0.88800293 562.15791016 -1.77600586 562.31582031 -2.69091797 562.47851562 C-32.62426847 567.71806482 -66.11631846 567.31410051 -96 562 C-96.90991699 561.85498047 -97.81983398 561.70996094 -98.75732422 561.56054688 C-155.23646751 552.46402807 -207.08935295 523.31205453 -248 484 C-248.48839355 483.53352051 -248.97678711 483.06704102 -249.47998047 482.58642578 C-256.2156852 476.12223082 -262.20768877 469.30957232 -268 462 C-268.94453312 460.85505053 -269.8912604 459.71190863 -270.83984375 458.5703125 C-282.72821658 444.16712871 -292.33026766 428.51440957 -301 412 C-301.6492041 410.78473633 -301.6492041 410.78473633 -302.31152344 409.54492188 C-315.46443534 384.66103449 -324.57256217 356.77971267 -329 329 C-329.15791016 328.11199707 -329.31582031 327.22399414 -329.47851562 326.30908203 C-334.71806482 296.37573153 -334.31410051 262.88368154 -329 233 C-328.85498047 232.09008301 -328.70996094 231.18016602 -328.56054688 230.24267578 C-319.46402807 173.76353249 -290.31205453 121.91064705 -251 81 C-250.53352051 80.51160645 -250.06704102 80.02321289 -249.58642578 79.52001953 C-243.12223082 72.7843148 -236.30957232 66.79231123 -229 61 C-227.85505053 60.05546688 -226.71190863 59.1087396 -225.5703125 58.16015625 C-211.16712871 46.27178342 -195.51440957 36.66973234 -179 28 C-177.78473633 27.3507959 -177.78473633 27.3507959 -176.54492188 26.68847656 C-151.66103449 13.53556466 -123.77971267 4.42743783 -96 0 C-94.66799561 -0.23686523 -94.66799561 -0.23686523 -93.30908203 -0.47851562 C-63.37573153 -5.71806482 -29.88368154 -5.31410051 0 0 Z " fill="#FCD700" transform="translate(332,3)"/>
<path d="M0 0 C9.53700106 2.44895852 20.18505151 6.26432331 26.1640625 14.62841797 C27.24111965 16.46890057 28.2002807 18.32848387 29.125 20.25 C29.464104 20.94311279 29.80320801 21.63622559 30.15258789 22.3503418 C34.50951848 31.69170994 37.09102788 41.73540793 37.0625 52.0625 C37.28904413 55.48640566 37.60950087 56.61317097 40.078125 59.05859375 C41.95857041 60.39370999 43.87579556 61.67802353 45.8203125 62.91796875 C66.77704057 76.64024892 78.30956741 100.26196993 84 124 C84.74122889 128.56938713 85.14937626 133.00697701 85.24951172 137.63305664 C85.27991043 138.9378447 85.31030914 140.24263275 85.34162903 141.58695984 C85.37101568 143.02802462 85.40036717 144.46909012 85.4296875 145.91015625 C85.46445466 147.46040239 85.4996393 149.01063922 85.53520203 150.56086731 C85.61199318 153.93805452 85.68632652 157.31528374 85.75881958 160.69256592 C85.93872044 169.05591924 86.13299746 177.41894705 86.32538795 185.78202057 C86.39569733 188.84374761 86.46553287 191.90548523 86.5353241 194.96722412 C87.10698607 219.97190539 87.73194117 244.97525808 88.36358643 269.97848511 C88.52826447 276.50173154 88.69043539 283.02503769 88.85200405 289.54836178 C88.97561731 294.51940286 89.10120565 299.49039265 89.22733498 304.46137047 C89.28550166 306.76711862 89.34294629 309.07288514 89.39957237 311.37867165 C89.692446 323.27870793 90.06984226 335.16586597 90.64051819 347.0559473 C91.0787428 356.32215304 91.32127691 365.58958599 91.53515625 374.86328125 C91.57844519 376.67767118 91.6218596 378.49205811 91.66539001 380.30644226 C91.7551585 384.07169107 91.84318076 387.83697542 91.92993164 391.60229492 C92.03946001 396.34865964 92.15386598 401.09489266 92.26949501 405.84111214 C92.74767305 425.56370599 93.16387939 445.27013515 93 465 C76.17276845 470.99098013 59.63408931 476.03626258 42 479 C41.09894531 479.16226074 40.19789063 479.32452148 39.26953125 479.49169922 C5.14558073 485.45600442 -31.13689324 483.1569285 -65 477 C-65 381.96 -65 286.92 -65 189 C-71.6 189 -78.2 189 -85 189 C-101.40232331 185.69410538 -114.07635905 179.55870058 -123.4375 165.49609375 C-129.16174791 156.35160771 -133.15120234 145.82217014 -134 135 C-134.12246094 133.72125 -134.24492187 132.4425 -134.37109375 131.125 C-134.34910687 127.56597494 -134.12108581 127.13852534 -131.61328125 124.26953125 C-130.529638 123.42865769 -129.42796396 122.61067994 -128.3125 121.8125 C-127.1093092 120.87224831 -125.91020803 119.92674436 -124.71484375 118.9765625 C-123.78841064 118.24808105 -123.78841064 118.24808105 -122.84326172 117.50488281 C-111.11399015 107.92882587 -101.77402357 95.9105759 -93.18701172 83.54321289 C-78.17080317 61.99298785 -56.24497535 50.65964049 -31 45 C-31 40.87066193 -34.16025727 36.67083888 -36.06835938 33.02929688 C-38.91215029 27.49030952 -40.14378381 23.0237918 -40.125 16.75 C-40.12886719 15.44289063 -40.12886719 15.44289063 -40.1328125 14.109375 C-40 12 -40 12 -39 11 C-31.28238357 9.9086199 -25.37337249 11.63606661 -19 16 C-13.06516618 20.97089585 -8.93962332 26.40212169 -5 33 C-4.92652344 31.13408203 -4.92652344 31.13408203 -4.8515625 29.23046875 C-3.83476632 5.75214948 -3.83476632 5.75214948 0 0 Z " fill="#FEFEFE" transform="translate(290,86)"/>
<path d="M0 0 C3 1 3 1 4.125 2.9375 C7.69000408 15.41501429 8.18359035 32.99751996 3 45 C1.68 45 0.36 45 -1 45 C-3.73905522 38.26584154 -4.44914401 32.3589839 -4.3125 25.125 C-4.3026709 24.15844482 -4.2928418 23.19188965 -4.28271484 22.19604492 C-3.99018562 5.98527843 -3.99018562 5.98527843 0 0 Z " fill="#D9D8D4" transform="translate(290,86)"/>
<path d="M0 0 C3.67220916 0.94807465 4.83493589 1.74793818 6.94921875 4.9765625 C7.54794217 6.1833254 8.12668562 7.40015974 8.6875 8.625 C8.98857666 9.25873535 9.28965332 9.8924707 9.59985352 10.54541016 C12.96059505 17.79377736 14.4130313 24.01472812 14 32 C13.67 32.66 13.34 33.32 13 34 C10.55153888 33.62650593 9.31693816 33.36116209 7.65625 31.46875 C1.7285939 21.37571394 -1.74689039 12.86237672 -1 1 C-0.67 0.67 -0.34 0.34 0 0 Z " fill="#D9D8D5" transform="translate(251,97)"/>
<path d="M0 0 C1.02673828 0.02707031 2.05347656 0.05414063 3.11132812 0.08203125 C5.63887576 0.15256746 8.16210043 0.25106571 10.6875 0.375 C8.87038803 5.34814854 7.55619472 8.77664773 2.6875 11.375 C-0.7688406 11.83475781 -4.14641906 11.75283478 -7.625 11.625 C-8.55634766 11.60695312 -9.48769531 11.58890625 -10.44726562 11.5703125 C-12.73674197 11.52334888 -15.02408184 11.45769475 -17.3125 11.375 C-16.96937372 7.48623549 -15.71765607 4.50215581 -13.10009766 1.56152344 C-9.24166606 -0.99952239 -4.44549727 -0.22184823 0 0 Z " fill="#D9D9D9" transform="translate(243.3125,189.625)"/>
<path d="M0 0 C0.66 0 1.32 0 2 0 C2 1.65 2 3.3 2 5 C0.68 5 -0.64 5 -2 5 C-1.125 1.125 -1.125 1.125 0 0 Z " fill="#DBDAD3" transform="translate(158,211)"/>
</svg>
