<?xml version="1.0" encoding="UTF-8"?>
<svg version="1.1" xmlns="http://www.w3.org/2000/svg" width="445" height="272">

<path d="M0 0 C0.85988022 -0.00524185 1.71976044 -0.0104837 2.60569763 -0.0158844 C4.42893394 -0.02231075 6.25221167 -0.02095968 8.07543945 -0.01245117 C10.8368757 -0.00401084 13.59619379 -0.03257855 16.35742188 -0.06445312 C27.38053437 -0.10955931 36.76749594 -0.01299245 45.24609375 7.87109375 C52.11893838 15.45547994 52.52195715 22.25369761 52.62109375 32.12109375 C52.66459961 33.53551758 52.66459961 33.53551758 52.70898438 34.97851562 C52.78418745 43.39547572 50.94104881 50.89287623 45.24609375 57.30859375 C36.22105383 65.33580798 24.85057933 65.06775001 13.46313477 64.95507812 C10.85145381 64.93343096 8.24246225 64.95506833 5.63085938 64.98046875 C3.96223354 64.97782879 2.29360938 64.97271069 0.625 64.96484375 C-0.15105087 64.97294067 -0.92710175 64.9810376 -1.72666931 64.98937988 C-5.06582982 64.93130632 -7.19833366 64.80939732 -9.89553833 62.75367737 C-12.12191171 59.87742331 -12.19251256 58.40225055 -12.19311523 54.79467773 C-12.20249619 53.66348007 -12.21187714 52.53228241 -12.22154236 51.36680603 C-12.21030838 50.15005692 -12.1990744 48.9333078 -12.1875 47.6796875 C-12.18895523 46.42728775 -12.19041046 45.174888 -12.19190979 43.88453674 C-12.19024962 41.23700068 -12.18076033 38.59090111 -12.15795898 35.94360352 C-12.12954446 32.5515817 -12.13232078 29.16045933 -12.1450491 25.76837063 C-12.15367664 22.53041819 -12.13856252 19.29261173 -12.125 16.0546875 C-12.12793564 14.83591415 -12.13087128 13.61714081 -12.13389587 12.36143494 C-12.1212117 11.23338943 -12.10852753 10.10534393 -12.09545898 8.94311523 C-12.090056 7.94924301 -12.08465302 6.95537079 -12.0790863 5.93138123 C-11.69140625 3.43359375 -11.69140625 3.43359375 -10.40701294 1.61450195 C-7.33598807 -0.49938492 -3.60394827 -0.01277615 0 0 Z " fill="#000000" transform="translate(119.69140625,61.56640625)"/>
<path d="M0 0 C1.02075623 0.00007553 2.04151245 0.00015106 3.09320068 0.00022888 C4.18811829 0.00539017 5.28303589 0.01055145 6.41113281 0.01586914 C8.10064056 0.01799156 8.10064056 0.01799156 9.82427979 0.02015686 C13.42096617 0.0257534 17.01759025 0.03830529 20.61425781 0.05102539 C23.053059 0.05604084 25.49186116 0.06060367 27.93066406 0.06469727 C33.90855264 0.0757217 39.88639467 0.09298399 45.86425781 0.11352539 C45.86425781 4.40352539 45.86425781 8.69352539 45.86425781 13.11352539 C29.69425781 13.44352539 13.52425781 13.77352539 -3.13574219 14.11352539 C-3.13574219 25.99352539 -3.13574219 37.87352539 -3.13574219 50.11352539 C8.74425781 50.44352539 20.62425781 50.77352539 32.86425781 51.11352539 C32.86425781 47.15352539 32.86425781 43.19352539 32.86425781 39.11352539 C22.96425781 39.11352539 13.06425781 39.11352539 2.86425781 39.11352539 C2.86425781 26.11352539 2.86425781 26.11352539 3.86425781 25.11352539 C6.54474613 24.98762713 9.19804174 24.92485535 11.87988281 24.91040039 C13.09185333 24.90185028 13.09185333 24.90185028 14.32830811 24.89312744 C16.0432402 24.8836609 17.75819062 24.87713692 19.47314453 24.87329102 C22.0895199 24.86361686 24.70509934 24.83262308 27.32128906 24.80102539 C28.98664898 24.79449237 30.65201452 24.78924307 32.31738281 24.78540039 C33.09776917 24.77305359 33.87815552 24.76070679 34.68218994 24.74798584 C39.25463516 24.76660095 42.24200727 25.24816302 45.86425781 28.11352539 C47.96516142 32.31533261 47.13213262 37.75764349 47.15942383 42.37988281 C47.17660787 44.40832569 47.22049156 46.43512533 47.26464844 48.46313477 C47.27302734 49.74639648 47.28140625 51.0296582 47.29003906 52.35180664 C47.30462158 53.52783447 47.3192041 54.7038623 47.33422852 55.91552734 C46.73145051 60.01723599 46.1297868 61.50747455 42.86425781 64.11352539 C39.24337291 64.84753281 35.68467073 64.78988469 32.00097656 64.74243164 C30.93563187 64.7448436 29.87028717 64.74725555 28.7726593 64.7497406 C26.51905599 64.74876139 24.26542884 64.73535028 22.01196289 64.71044922 C18.57451861 64.67625183 15.13966092 64.6897602 11.70214844 64.70922852 C9.51008026 64.70232681 7.3180187 64.6926515 5.12597656 64.67993164 C3.59126961 64.68737144 3.59126961 64.68737144 2.02555847 64.69496155 C-4.22613109 64.59264017 -8.05241819 63.83550816 -13.13574219 60.11352539 C-17.60525827 54.35020202 -18.30764605 49.89367753 -18.37402344 42.78930664 C-18.38209518 41.96907516 -18.39016693 41.14884369 -18.39848328 40.30375671 C-18.41231087 38.56629541 -18.42303895 36.8288071 -18.4309082 35.09130859 C-18.4424065 33.3233234 -18.46282424 31.55537232 -18.49243164 29.78759766 C-18.5353382 27.2254287 -18.5513106 24.66429137 -18.56152344 22.10180664 C-18.57903152 21.32130447 -18.59653961 20.54080231 -18.61457825 19.73664856 C-18.59256586 14.0897713 -17.25951834 9.84384706 -14.13574219 5.11352539 C-9.64485626 0.73491161 -6.10897637 -0.01512123 0 0 Z " fill="#000000" transform="translate(259.1357421875,132.886474609375)"/>
<path d="M0 0 C0.73003235 -0.00570007 1.4600647 -0.01140015 2.21221924 -0.01727295 C3.75539715 -0.0267009 5.29859499 -0.03324815 6.84179688 -0.03710938 C9.18135542 -0.04678497 11.52002349 -0.07781545 13.859375 -0.109375 C15.36457816 -0.11590908 16.86978756 -0.12115796 18.375 -0.125 C19.06487 -0.1373468 19.75473999 -0.1496936 20.46551514 -0.16241455 C26.48709906 -0.13532878 31.99153922 1.15323301 36.6953125 5.0703125 C37.23414063 5.73289063 37.77296875 6.39546875 38.328125 7.078125 C39.15957031 8.06425781 39.15957031 8.06425781 40.0078125 9.0703125 C45.01691692 16.46212606 44.36761289 26.22726351 43.05859375 34.78125 C41.36735366 40.32415299 37.19032215 44.13348762 32.453125 47.203125 C27.85893429 49.05202195 24.02124908 49.4392252 19.0859375 49.3984375 C18.40634979 49.3956076 17.72676208 49.39277771 17.02658081 49.38986206 C14.87690892 49.37875464 12.72766886 49.35366891 10.578125 49.328125 C9.11198523 49.31808295 7.64583886 49.30895925 6.1796875 49.30078125 C2.60402869 49.27884659 -0.97138094 49.24438314 -4.546875 49.203125 C-4.546875 44.913125 -4.546875 40.623125 -4.546875 36.203125 C-1.60201172 36.14705078 -1.60201172 36.14705078 1.40234375 36.08984375 C3.98178997 36.02418512 6.5612162 35.95773775 9.140625 35.890625 C11.08098633 35.85678711 11.08098633 35.85678711 13.06054688 35.82226562 C14.30771484 35.78681641 15.55488281 35.75136719 16.83984375 35.71484375 C17.98670654 35.68865967 19.13356934 35.66247559 20.31518555 35.63549805 C23.77260806 35.1591038 25.69906769 34.32459071 28.453125 32.203125 C30.01590885 27.51477344 29.93700401 23.05799455 28.703125 18.328125 C27.16266759 15.7093474 26.28098417 15.26825481 23.453125 14.203125 C20.27310375 13.91155829 20.27310375 13.91155829 16.75390625 13.97265625 C15.46291016 13.97458984 14.17191406 13.97652344 12.84179688 13.97851562 C12.1733374 13.98471924 11.50487793 13.99092285 10.81616211 13.99731445 C8.7620819 14.01565664 6.70845072 14.0178234 4.65429688 14.01757812 C-1.33069424 13.45442771 -1.33069424 13.45442771 -6.546875 15.203125 C-6.6694105 16.73695179 -6.72465438 18.27623019 -6.75219727 19.81469727 C-6.77214249 20.79563858 -6.79208771 21.7765799 -6.81263733 22.7872467 C-6.82934982 23.8539006 -6.84606232 24.9205545 -6.86328125 26.01953125 C-6.88406235 27.1057225 -6.90484344 28.19191376 -6.92625427 29.3110199 C-6.99186942 32.79582127 -7.05069011 36.28070068 -7.109375 39.765625 C-7.15254885 42.12175301 -7.19616276 44.47787299 -7.24023438 46.83398438 C-7.34756297 52.62361705 -7.44879631 58.41332854 -7.546875 64.203125 C-11.836875 64.203125 -16.126875 64.203125 -20.546875 64.203125 C-20.64585693 56.76501333 -20.71839903 49.32728629 -20.76660156 41.88867188 C-20.78669905 39.35898153 -20.81398168 36.82933754 -20.84863281 34.29980469 C-20.89723056 30.66069083 -20.91986312 27.022192 -20.9375 23.3828125 C-20.96846771 21.69029861 -20.96846771 21.69029861 -21.00006104 19.96359253 C-21.00184276 13.70862745 -20.78123908 9.93696171 -16.546875 5.203125 C-11.22840824 0.28354324 -7.03594778 0.04284146 0 0 Z " fill="#000000" transform="translate(128.546875,132.796875)"/>
<path d="M0 0 C4.62 0 9.24 0 14 0 C14.01401855 1.7171521 14.01401855 1.7171521 14.02832031 3.46899414 C14.06836199 7.7390758 14.13415952 12.0084477 14.20751953 16.27807617 C14.23564722 18.12173303 14.25690239 19.96550863 14.27099609 21.80932617 C14.29253991 24.46855097 14.3392467 27.12636034 14.390625 29.78515625 C14.39185364 30.60210464 14.39308228 31.41905304 14.39434814 32.26075745 C14.5384181 37.96171136 15.46668076 41.44459705 19 46 C29.09139342 51.72834738 29.09139342 51.72834738 51 51 C51 34.17 51 17.34 51 0 C55.29 0 59.58 0 64 0 C64.06775484 7.90160458 64.12280356 15.80298364 64.15543652 23.70480061 C64.17109805 27.37386676 64.19234475 31.04272401 64.22631836 34.71166992 C64.25889514 38.25188947 64.27684934 41.79190799 64.28463173 45.33226585 C64.29287924 47.34147655 64.31630137 49.35060628 64.33988953 51.35969543 C64.34011612 52.58073471 64.34034271 53.80177399 64.34057617 55.05981445 C64.35056892 56.67530937 64.35056892 56.67530937 64.36076355 58.32344055 C64 61 64 61 62.70236206 62.8460083 C59.77186613 64.83252343 56.38665093 64.44676819 52.96484375 64.43359375 C52.17155167 64.4388356 51.37825958 64.44407745 50.56092834 64.44947815 C48.8789283 64.45590307 47.19688336 64.45455523 45.51489258 64.44604492 C42.9706736 64.43760998 40.42875834 64.46616355 37.88476562 64.49804688 C27.74565055 64.54190242 19.07144646 64.04118311 10.6875 57.6875 C2.15935014 49.15935014 -0.24302752 40.63758652 -0.29296875 28.7109375 C-0.28413162 25.26506024 -0.23825326 21.82047593 -0.1875 18.375 C-0.1724266 16.58985503 -0.15874289 14.80469776 -0.14648438 13.01953125 C-0.11368745 8.67937971 -0.06205209 4.33982783 0 0 Z " fill="#000000" transform="translate(314,133)"/>
<path d="M0 0 C0.66 0 1.32 0 2 0 C4.3778581 16.71105829 4.3778581 16.71105829 0.51025391 22.06054688 C-3.26515986 25.64063036 -7.58275568 28.31220711 -12.09521484 30.8671875 C-14.58555165 32.34823887 -16.74275677 34.19085515 -19 36 C-19.66 36 -20.32 36 -21 36 C-21 36.66 -21 37.32 -21 38 C-22.46875 39.26513672 -22.46875 39.26513672 -24.5 40.6796875 C-25.5828125 41.45505859 -25.5828125 41.45505859 -26.6875 42.24609375 C-28.22549743 43.32944667 -29.76716448 44.40760913 -31.3125 45.48046875 C-32.3953125 46.25970703 -32.3953125 46.25970703 -33.5 47.0546875 C-34.1703125 47.52374512 -34.840625 47.99280273 -35.53125 48.47607422 C-37.46263464 50.12726404 -37.46263464 50.12726404 -37 54 C-35.71767763 55.53238315 -35.71767763 55.53238315 -33.87890625 56.77734375 C-33.19860352 57.28467041 -32.51830078 57.79199707 -31.81738281 58.31469727 C-31.07327148 58.85022217 -30.32916016 59.38574707 -29.5625 59.9375 C-28.00625182 61.09079697 -26.45027013 62.2444536 -24.89453125 63.3984375 C-24.08838379 63.98979492 -23.28223633 64.58115234 -22.45166016 65.19042969 C-18.51276521 68.09772797 -14.63337433 71.0816993 -10.75 74.0625 C-9.69727905 74.86578735 -9.69727905 74.86578735 -8.62329102 75.68530273 C-7.31908999 76.68088449 -6.02124582 77.68487242 -4.73120117 78.69873047 C-2.85083721 80.16097827 -2.85083721 80.16097827 -0.03515625 81.76171875 C2.75369805 84.8289232 2.51651699 87.06732233 2.43945312 91.10546875 C2.37661133 92.41451172 2.37661133 92.41451172 2.3125 93.75 C2.28994141 94.63816406 2.26738281 95.52632813 2.24414062 96.44140625 C2.18532552 98.62932812 2.10321268 100.81379671 2 103 C-2.85674827 101.49022432 -5.92360393 98.70380318 -9.625 95.375 C-14.58105975 91.01891152 -19.61908195 87.01001542 -25.01171875 83.19921875 C-29.52825585 79.8752836 -33.84159116 76.30929006 -38.16748047 72.74243164 C-39.12678467 71.95340454 -39.12678467 71.95340454 -40.10546875 71.1484375 C-40.73751221 70.61959961 -41.36955566 70.09076172 -42.02075195 69.54589844 C-43.98913368 67.95052224 -43.98913368 67.95052224 -46.23510742 66.61816406 C-51.59799655 63.21751126 -51.59799655 63.21751126 -52.74243164 59.75146484 C-53.04202723 57.1210823 -53.04443731 54.64426807 -52.9375 52 C-52.96005859 51.1234375 -52.98261719 50.246875 -53.00585938 49.34375 C-52.94688493 45.61431858 -52.80943737 43.02126939 -50.44580078 40.0390625 C-45.8840779 36 -45.8840779 36 -43 36 C-43 35.34 -43 34.68 -43 34 C-41.07518303 32.37687848 -39.14716867 30.86817315 -37.125 29.375 C-35.91216035 28.46173386 -34.69992517 27.54766444 -33.48828125 26.6328125 C-32.58843506 25.95653809 -32.58843506 25.95653809 -31.67041016 25.26660156 C-29.51796681 23.63449457 -27.41239543 21.94903974 -25.3125 20.25 C-19.62742726 15.66800107 -13.84701827 11.20908758 -8.06762695 6.74707031 C-7.31312256 6.16280273 -6.55861816 5.57853516 -5.78125 4.9765625 C-5.10126953 4.45143066 -4.42128906 3.92629883 -3.72070312 3.38525391 C-1.89313633 1.9647213 -1.89313633 1.9647213 0 0 Z " fill="#000000" transform="translate(96,112)"/>
<path d="M0 0 C5.72579243 4.25924069 11.37483102 8.6090607 17 13 C18.42924115 14.10864858 19.85892329 15.2167289 21.2890625 16.32421875 C29.35060872 22.57501766 37.38159255 28.85760088 45.31689453 35.26831055 C47.82586726 37.29018947 50.31661074 39.21107383 53 41 C54.83425559 47.45451066 54.67757501 55.54303775 53 62 C50.18346643 66.57819895 45.5099687 69.12259466 40.97558594 71.78613281 C37.7701416 73.75566683 34.91527354 76.13108136 32 78.5 C30.8402175 79.41488884 29.67875165 80.32764771 28.515625 81.23828125 C27.93876953 81.69154785 27.36191406 82.14481445 26.76757812 82.61181641 C24.96544644 84.02713695 23.1624999 85.44141385 21.359375 86.85546875 C20.15622577 87.79944828 18.95310047 88.74345832 17.75 89.6875 C16.88242065 90.36776245 16.88242065 90.36776245 15.99731445 91.06176758 C11.56172673 94.54483924 7.16679784 98.07629344 2.79296875 101.63671875 C1 103 1 103 0 103 C-2.18824757 86.63623661 -2.18824757 86.63623661 1.08398438 81.19873047 C4.16737719 77.9314952 7.98369254 75.69702671 11.80859375 73.39404297 C15.89021527 70.79755691 19.59678754 67.70046501 23.375 64.6875 C28.86804421 60.39241332 34.40745266 56.16468299 40 52 C36.54312335 48.40967774 32.9871607 45.32779028 29 42.3125 C27.84888663 41.43759433 26.69784712 40.56259148 25.546875 39.6875 C24.96099609 39.2440625 24.37511719 38.800625 23.77148438 38.34375 C22.03556136 37.02697488 20.30556348 35.70288137 18.578125 34.375 C18.02471436 33.95065674 17.47130371 33.52631348 16.90112305 33.08911133 C15.80280855 32.23991918 14.71044199 31.38297649 13.62426758 30.51831055 C11.21696199 28.6147306 8.90460384 26.94985417 6.18359375 25.51953125 C3.22877457 23.86871678 1.77758768 22.91326869 0 20 C-1.08197937 13.40364693 -0.54896968 6.62986458 0 0 Z " fill="#000000" transform="translate(44,45)"/>
<path d="M0 0 C4.30495015 -0.09935088 8.60928183 -0.17169268 12.91503906 -0.21972656 C14.37772252 -0.23976332 15.84032666 -0.26700104 17.30273438 -0.30175781 C19.4129601 -0.35063225 21.52212136 -0.37304659 23.6328125 -0.390625 C24.90012207 -0.41157227 26.16743164 -0.43251953 27.47314453 -0.45410156 C32.77411588 0.22842694 36.54857277 2.95503277 39.8125 7.125 C43.77508244 12.3329655 43.28753623 16.61514479 43.375 23 C43.43107422 24.50626953 43.43107422 24.50626953 43.48828125 26.04296875 C43.57298015 33.31766354 42.48179901 39.11229629 38 45 C31.96133906 50.62490255 23.1317033 49.59265473 15.4375 49.5 C13.50487305 49.52320312 13.50487305 49.52320312 11.53320312 49.546875 C4.51753632 49.51792949 -0.37471494 49.36099624 -6 45 C-10.5911495 40.04639133 -11.35770733 36.06967961 -11.28125 29.50390625 C-10.7247527 24.54953445 -7.97706409 21.86074694 -4.375 18.6875 C-0.58594275 15.99527511 1.46234496 15.88066516 6.1015625 15.90234375 C7.31328125 15.90556641 8.525 15.90878906 9.7734375 15.91210938 C11.04445313 15.92048828 12.31546875 15.92886719 13.625 15.9375 C14.90375 15.94201172 16.1825 15.94652344 17.5 15.95117188 C20.66668645 15.96298787 23.83334896 15.98092379 27 16 C27 20.29 27 24.58 27 29 C19.08 29.33 11.16 29.66 3 30 C3 31.65 3 33.3 3 35 C7.14581887 35.02886751 11.29161216 35.04675327 15.4375 35.0625 C16.62150391 35.07087891 17.80550781 35.07925781 19.02539062 35.08789062 C20.15009766 35.09111328 21.27480469 35.09433594 22.43359375 35.09765625 C23.99678345 35.10551147 23.99678345 35.10551147 25.59155273 35.11352539 C27.95128747 35.27305556 27.95128747 35.27305556 29 34 C29.09860131 32.59651265 29.13078937 31.18819523 29.1328125 29.78125 C29.13410156 28.93175781 29.13539063 28.08226563 29.13671875 27.20703125 C29.13091797 25.86705078 29.13091797 25.86705078 29.125 24.5 C29.12886719 23.60667969 29.13273437 22.71335937 29.13671875 21.79296875 C29.13542969 20.94347656 29.13414062 20.09398438 29.1328125 19.21875 C29.13112061 18.0421582 29.13112061 18.0421582 29.12939453 16.84179688 C29.20107442 14.98247012 29.20107442 14.98247012 28 14 C25.9291528 13.8415735 23.85321971 13.74875578 21.77734375 13.68359375 C19.88725586 13.62075195 19.88725586 13.62075195 17.95898438 13.55664062 C16.61849264 13.51682404 15.2779978 13.47711186 13.9375 13.4375 C12.59308477 13.39431958 11.2486834 13.35070544 9.90429688 13.30664062 C6.60299987 13.20014717 3.30151421 13.0995325 0 13 C0 8.71 0 4.42 0 0 Z " fill="#000000" transform="translate(246,77)"/>
<path d="M0 0 C2.00589945 -0.00964491 4.01165785 -0.04081945 6.01733398 -0.07226562 C13.87976463 -0.10401699 19.31830936 0.06108459 25.83959961 4.64257812 C29.30187233 8.33003931 30.28418084 11.16176229 30.46850586 16.24023438 C30.13136197 22.65399546 28.60681391 26.64963308 23.84350586 31.11523438 C19.90174392 33.33247547 16.23285904 33.35979003 11.76538086 33.33789062 C10.02514648 33.33305664 10.02514648 33.33305664 8.24975586 33.328125 C7.04319336 33.31974609 5.83663086 33.31136719 4.59350586 33.30273438 C3.37147461 33.29822266 2.14944336 33.29371094 0.89038086 33.2890625 C-2.1252936 33.27728252 -5.14086912 33.26083291 -8.15649414 33.24023438 C-8.18335967 31.2611404 -8.2028279 29.28194467 -8.21899414 27.30273438 C-8.2305957 26.20058594 -8.24219727 25.0984375 -8.25415039 23.96289062 C-8.15649414 21.24023438 -8.15649414 21.24023438 -7.15649414 20.24023438 C-5.45085636 20.08282832 -3.7392217 19.98930046 -2.02758789 19.92382812 C-0.99311523 19.88193359 0.04135742 19.84003906 1.10717773 19.796875 C2.19579102 19.75755859 3.2844043 19.71824219 4.40600586 19.67773438 C6.04472656 19.61295898 6.04472656 19.61295898 7.71655273 19.546875 C10.4254015 19.44041369 13.13434578 19.33839921 15.84350586 19.24023438 C15.84350586 17.59023437 15.84350586 15.94023438 15.84350586 14.24023438 C7.59350586 14.24023438 -0.65649414 14.24023438 -9.15649414 14.24023438 C-9.15649414 21.17023438 -9.15649414 28.10023437 -9.15649414 35.24023438 C-1.23649414 35.57023437 6.68350586 35.90023437 14.84350586 36.24023438 C14.84350586 40.53023437 14.84350586 44.82023437 14.84350586 49.24023438 C10.46784334 49.34827542 6.09485505 49.42758725 1.71850586 49.49023438 C0.48100586 49.52375 -0.75649414 49.55726562 -2.03149414 49.59179688 C-13.40555994 49.71409866 -13.40555994 49.71409866 -18.15649414 45.24023438 C-23.81382018 38.97130552 -23.36823852 33.56216994 -23.40649414 25.49023438 C-23.42711914 24.41773437 -23.44774414 23.34523438 -23.46899414 22.24023438 C-23.5026736 15.40330471 -23.33645569 9.8490457 -18.62133789 4.49804688 C-12.20438528 -0.26132974 -7.90326852 0.02299411 0 0 Z " fill="#000000" transform="translate(202.156494140625,76.759765625)"/>
<path d="M0 0 C4.455 -0.103125 8.91 -0.20625 13.5 -0.3125 C15.58344727 -0.38078003 15.58344727 -0.38078003 17.70898438 -0.45043945 C24.20193299 -0.52303084 29.30750061 -0.45538257 34.59692383 3.59863281 C38.24115788 7.23842809 38.27438735 11.30151652 38.32226562 16.18945312 C38.31904297 16.93130859 38.31582031 17.67316406 38.3125 18.4375 C38.32861328 19.17548828 38.34472656 19.91347656 38.36132812 20.67382812 C38.36563344 25.51730879 37.63785735 28.79453769 35 33 C30.33357643 37.3164418 27.04894511 38.12699035 20.80078125 38.09765625 C19.71192627 38.09515869 18.62307129 38.09266113 17.5012207 38.09008789 C16.11894287 38.08098389 14.73666504 38.07187988 13.3125 38.0625 C8.919375 38.041875 4.52625 38.02125 0 38 C0 25.46 0 12.92 0 0 Z " fill="#000000" transform="translate(121,75)"/>
<path d="M0 0 C4.29 0 8.58 0 13 0 C13.09060758 7.44132216 13.16389148 14.88233955 13.20724869 22.32409763 C13.22806504 25.78015815 13.25627153 29.23581954 13.30175781 32.69165039 C13.35379891 36.67068597 13.37299459 40.64956366 13.390625 44.62890625 C13.41127014 45.86145645 13.43191528 47.09400665 13.45318604 48.36390686 C13.45494903 55.13683993 13.1425968 59.5337647 9 65 C7.1484375 66.5234375 7.1484375 66.5234375 5.375 67.375 C3.57847984 68.23999119 1.78341121 69.10829439 0 70 C-1.8863912 70.084915 -3.77578515 70.107193 -5.6640625 70.09765625 C-7.34628906 70.09282227 -7.34628906 70.09282227 -9.0625 70.08789062 C-10.238125 70.07951172 -11.41375 70.07113281 -12.625 70.0625 C-13.80835938 70.05798828 -14.99171875 70.05347656 -16.2109375 70.04882812 C-19.14064639 70.03701478 -22.07032941 70.0190789 -25 70 C-25 65.38 -25 60.76 -25 56 C-17.08 55.67 -9.16 55.34 -1 55 C-0.67 36.85 -0.34 18.7 0 0 Z " fill="#000000" transform="translate(219,148)"/>
<path d="M0 0 C1.02574883 0.00212242 1.02574883 0.00212242 2.07221985 0.00428772 C4.25261847 0.00987749 6.43291376 0.02242803 8.61328125 0.03515625 C10.09309747 0.04017258 11.57291531 0.04473525 13.05273438 0.04882812 C16.67711682 0.05984354 20.30143895 0.07710113 23.92578125 0.09765625 C23.92578125 4.38765625 23.92578125 8.67765625 23.92578125 13.09765625 C20.91130859 13.18853516 20.91130859 13.18853516 17.8359375 13.28125 C15.89655456 13.34381074 13.95717252 13.40640482 12.01782227 13.4699707 C10.66663978 13.51336848 9.31540072 13.55503995 7.96411133 13.5949707 C6.02541424 13.65255577 4.08691849 13.71679923 2.1484375 13.78125 C0.98062744 13.81790771 -0.18718262 13.85456543 -1.39038086 13.89233398 C-3.9920167 13.79841813 -3.9920167 13.79841813 -5.07421875 15.09765625 C-5.23410366 17.61646142 -5.333561 20.11107891 -5.390625 22.6328125 C-5.4114061 23.38606308 -5.43218719 24.13931366 -5.45359802 24.91539001 C-5.519173 27.33021615 -5.57801496 29.74515423 -5.63671875 32.16015625 C-5.67989645 33.79363154 -5.72351048 35.42709535 -5.76757812 37.06054688 C-5.87486237 41.07280089 -5.97610696 45.08516789 -6.07421875 49.09765625 C-10.36421875 49.09765625 -14.65421875 49.09765625 -19.07421875 49.09765625 C-19.17340461 43.79579066 -19.2458363 38.49447007 -19.29394531 33.19189453 C-19.31400908 31.38971544 -19.34126688 29.58760104 -19.37597656 27.78564453 C-19.42472704 25.18896489 -19.44723957 22.59314896 -19.46484375 19.99609375 C-19.48548889 19.19585785 -19.50613403 18.39562195 -19.52740479 17.57113647 C-19.52951474 12.26116627 -18.56382459 9.32682876 -15.07421875 5.09765625 C-10.0479498 0.561755 -6.67660935 -0.02725147 0 0 Z " fill="#000000" transform="translate(315.07421875,76.90234375)"/>
<path d="M0 0 C2.74891139 1.29473613 5.11081904 2.72321668 7.51171875 4.58203125 C8.17913086 5.09580322 8.84654297 5.6095752 9.53417969 6.13891602 C10.24477539 6.69119873 10.95537109 7.24348145 11.6875 7.8125 C13.20694017 8.98449309 14.72647426 10.15636442 16.24609375 11.328125 C17.02710449 11.93205078 17.80811523 12.53597656 18.61279297 13.15820312 C23.18609989 16.6866371 27.78436274 20.18250464 32.37768555 23.68481445 C33.68137572 24.68080529 34.97887818 25.68496988 36.26879883 26.69873047 C38.14916279 28.16097827 38.14916279 28.16097827 40.96484375 29.76171875 C43.75369805 32.8289232 43.51651699 35.06732233 43.43945312 39.10546875 C43.37661133 40.41451172 43.37661133 40.41451172 43.3125 41.75 C43.28994141 42.63816406 43.26738281 43.52632812 43.24414062 44.44140625 C43.18532552 46.62932812 43.10321268 48.81379671 43 51 C38.14325173 49.49022432 35.07639607 46.70380318 31.375 43.375 C26.42030619 39.0201121 21.3845086 35.01135177 15.9921875 31.203125 C11.44192855 27.85280379 7.09879734 24.25438979 2.74462891 20.65454102 C-1.38994591 17.25017627 -5.60808222 14.06637783 -10 11 C-9.19757029 6.93238397 -7.79755833 5.71088779 -4.4375 3.25 C-3.61121094 2.63640625 -2.78492188 2.0228125 -1.93359375 1.390625 C-1.29550781 0.93171875 -0.65742187 0.4728125 0 0 Z " fill="#000000" transform="translate(55,164)"/>
<path d="M0 0 C2.23828125 1.171875 2.23828125 1.171875 4.3125 2.75 C5.00988281 3.26046875 5.70726562 3.7709375 6.42578125 4.296875 C8 6 8 6 8 10 C6.15615304 11.71826934 4.41654421 13.11612768 2.375 14.5625 C1.17245198 15.44953866 -0.02934635 16.33759439 -1.23046875 17.2265625 C-1.8548584 17.68321289 -2.47924805 18.13986328 -3.12255859 18.61035156 C-6.11116702 20.82246589 -9.02267536 23.12955257 -11.9375 25.4375 C-13.10787632 26.35962458 -14.27845064 27.2814979 -15.44921875 28.203125 C-16.0323584 28.66267578 -16.61549805 29.12222656 -17.21630859 29.59570312 C-19.02411146 31.01898291 -20.8339765 32.43959792 -22.64453125 33.859375 C-23.84636063 34.80207509 -25.04818363 35.74478332 -26.25 36.6875 C-26.82830566 37.14092773 -27.40661133 37.59435547 -28.00244141 38.06152344 C-32.438053 41.54474965 -36.83311306 45.07622091 -41.20703125 48.63671875 C-43 50 -43 50 -44 50 C-46.18824757 33.63623661 -46.18824757 33.63623661 -42.91601562 28.19873047 C-39.83367322 24.93260823 -36.01948969 22.70033575 -32.19580078 20.3984375 C-28.08948928 17.7832549 -24.36263028 14.65990827 -20.5625 11.625 C-17.72267957 9.39753314 -14.86480502 7.19517329 -12 5 C-11.36819824 4.49694336 -10.73639648 3.99388672 -10.08544922 3.47558594 C-6.6704464 0.85093079 -4.35867318 -0.90531905 0 0 Z " fill="#000000" transform="translate(88,98)"/>
<path d="M0 0 C4.29 0 8.58 0 13 0 C13.02505615 1.02472412 13.0501123 2.04944824 13.07592773 3.10522461 C13.16984484 6.89409676 13.27010317 10.68277881 13.37231445 14.47143555 C13.41572297 16.11364303 13.45739358 17.75589739 13.49731445 19.39819336 C13.5548744 21.75388745 13.61860892 24.10934428 13.68359375 26.46484375 C13.70030624 27.20339096 13.71701874 27.94193817 13.73423767 28.7028656 C13.53548013 32.14300627 13.53548013 32.14300627 15 35 C16.70563778 35.15740605 18.41727244 35.25093392 20.12890625 35.31640625 C21.68061523 35.37924805 21.68061523 35.37924805 23.26367188 35.44335938 C24.35228516 35.48267578 25.44089844 35.52199219 26.5625 35.5625 C27.65498047 35.60568359 28.74746094 35.64886719 29.87304688 35.69335938 C32.58186768 35.79981958 35.29091651 35.90044807 38 36 C38 40.29 38 44.58 38 49 C33.62433748 49.10804105 29.25134919 49.18735287 24.875 49.25 C23.6375 49.28351563 22.4 49.31703125 21.125 49.3515625 C12.05331903 49.44910746 12.05331903 49.44910746 7.4453125 47.484375 C2.46003417 42.41945963 -0.57016719 37.67390966 -0.56648254 30.45239258 C-0.54067612 29.68435303 -0.51486969 28.91631348 -0.48828125 28.125 C-0.48120651 27.31506592 -0.47413177 26.50513184 -0.46684265 25.6706543 C-0.4391089 23.11278359 -0.37641784 20.55719594 -0.3125 18 C-0.28738963 16.25393812 -0.26458128 14.50784154 -0.24414062 12.76171875 C-0.18935231 8.50694822 -0.1032336 4.25385958 0 0 Z " fill="#000000" transform="translate(178,148)"/>
<path d="M0 0 C4.62 0 9.24 0 14 0 C14 21.12 14 42.24 14 64 C9.38 64 4.76 64 0 64 C0 42.88 0 21.76 0 0 Z " fill="#000000" transform="translate(389,133)"/>
<path d="M0 0 C0.33 0 0.66 0 1 0 C1 11.22 1 22.44 1 34 C-12.86 34 -26.72 34 -41 34 C-41 33.67 -41 33.34 -41 33 C-40.05253906 32.79697266 -40.05253906 32.79697266 -39.0859375 32.58984375 C-25.405898 29.29796105 -12.27340914 23.16031651 -4.625 10.9375 C-2.63348737 7.39282398 -1.0399905 3.95196389 0 0 Z " fill="#000000" transform="translate(444,238)"/>
<path d="M0 0 C1.71395649 2.57093474 2.9522834 4.96423503 4.25 7.75 C10.10237767 19.40401219 19.50564793 25.70310555 31.62890625 30.22265625 C35.05456364 31.34573009 38.48096455 32.21799212 42 33 C42 33.33 42 33.66 42 34 C28.14 34 14.28 34 0 34 C0 22.78 0 11.56 0 0 Z " fill="#000000" transform="translate(0,238)"/>
<path d="M0 0 C13.86 0 27.72 0 42 0 C42 11.22 42 22.44 42 34 C40.28604351 31.42906526 39.0477166 29.03576497 37.75 26.25 C31.78369456 14.36912008 21.46195025 7.3737709 9 3 C6.01935789 2.20364524 3.0361372 1.54549983 0 1 C0 0.67 0 0.34 0 0 Z " fill="#000000" transform="translate(403,0)"/>
<path d="M0 0 C13.86 0 27.72 0 42 0 C42 0.33 42 0.66 42 1 C41.28457031 1.13535156 40.56914063 1.27070313 39.83203125 1.41015625 C27.41833947 4.09202757 14.80422353 9.8455204 7.25390625 20.453125 C4.54199131 24.79739161 2.31195746 29.01456166 1 34 C0.67 34 0.34 34 0 34 C0 22.78 0 11.56 0 0 Z " fill="#000000" transform="translate(0,0)"/>
<path d="M0 0 C4.45827926 -0.0578304 8.9164628 -0.09353855 13.375 -0.125 C15.28152344 -0.15013672 15.28152344 -0.15013672 17.2265625 -0.17578125 C18.43828125 -0.18222656 19.65 -0.18867187 20.8984375 -0.1953125 C22.01911621 -0.20578613 23.13979492 -0.21625977 24.29443359 -0.22705078 C27 0 27 0 29 2 C29.25878906 3.93945312 29.25878906 3.93945312 29.265625 6.28125 C29.26949219 7.54388672 29.26949219 7.54388672 29.2734375 8.83203125 C29.26570313 9.71246094 29.25796875 10.59289062 29.25 11.5 C29.25773437 12.38042969 29.26546875 13.26085937 29.2734375 14.16796875 C29.27085937 15.00972656 29.26828125 15.85148437 29.265625 16.71875 C29.26336914 17.49154297 29.26111328 18.26433594 29.25878906 19.06054688 C29 21 29 21 27 23 C24.49389648 23.24291992 24.49389648 23.24291992 21.37109375 23.23046875 C20.25412109 23.22853516 19.13714844 23.22660156 17.98632812 23.22460938 C16.2296582 23.20624023 16.2296582 23.20624023 14.4375 23.1875 C13.26251953 23.18685547 12.08753906 23.18621094 10.87695312 23.18554688 C2.14012141 23.14012141 2.14012141 23.14012141 1 22 C0.875 19.5 0.875 19.5 1 17 C2 16 2 16 4.31665039 15.88647461 C5.31688232 15.89171143 6.31711426 15.89694824 7.34765625 15.90234375 C8.42724609 15.90556641 9.50683594 15.90878906 10.61914062 15.91210938 C12.32360352 15.92467773 12.32360352 15.92467773 14.0625 15.9375 C15.77276367 15.94426758 15.77276367 15.94426758 17.51757812 15.95117188 C20.34507418 15.9630024 23.17254345 15.9809385 26 16 C26 11.71 26 7.42 26 3 C24.29070312 3.03480469 22.58140625 3.06960937 20.8203125 3.10546875 C18.58855146 3.13360019 16.35677983 3.16090103 14.125 3.1875 C12.43310547 3.22520508 12.43310547 3.22520508 10.70703125 3.26367188 C9.09248047 3.27817383 9.09248047 3.27817383 7.4453125 3.29296875 C5.95281982 3.31653442 5.95281982 3.31653442 4.43017578 3.34057617 C3.62821777 3.22818604 2.82625977 3.1157959 2 3 C1.34 2.01 0.68 1.02 0 0 Z " fill="#000000" transform="translate(247,90)"/>
<path d="M0 0 C1.12019531 -0.00128906 2.24039063 -0.00257812 3.39453125 -0.00390625 C4.57402344 -0.00003906 5.75351563 0.00382812 6.96875 0.0078125 C8.73798828 0.00201172 8.73798828 0.00201172 10.54296875 -0.00390625 C12.22326172 -0.00197266 12.22326172 -0.00197266 13.9375 0 C14.97326172 0.00112793 16.00902344 0.00225586 17.07617188 0.00341797 C19.46875 0.1328125 19.46875 0.1328125 20.46875 1.1328125 C20.59375 3.6328125 20.59375 3.6328125 20.46875 6.1328125 C18.78574331 7.81581919 16.64866273 7.36090327 14.33984375 7.44921875 C13.30537109 7.49111328 12.27089844 7.53300781 11.20507812 7.57617188 C9.5721582 7.63514648 9.5721582 7.63514648 7.90625 7.6953125 C6.2675293 7.76008789 6.2675293 7.76008789 4.59570312 7.82617188 C1.88688232 7.93263208 -0.82216651 8.03326057 -3.53125 8.1328125 C-3.86125 12.0928125 -4.19125 16.0528125 -4.53125 20.1328125 C3.05875 20.1328125 10.64875 20.1328125 18.46875 20.1328125 C18.13875 21.1228125 17.80875 22.1128125 17.46875 23.1328125 C13.65626574 23.16168486 9.8438093 23.17956742 6.03125 23.1953125 C4.94263672 23.20369141 3.85402344 23.21207031 2.73242188 23.22070312 C1.69794922 23.22392578 0.66347656 23.22714844 -0.40234375 23.23046875 C-1.36068115 23.23570557 -2.31901855 23.24094238 -3.30639648 23.24633789 C-5.53125 23.1328125 -5.53125 23.1328125 -6.53125 22.1328125 C-6.63024523 20.58325691 -6.66204524 19.02927577 -6.6640625 17.4765625 C-6.66535156 16.53683594 -6.66664063 15.59710938 -6.66796875 14.62890625 C-6.66410156 13.64019531 -6.66023437 12.65148437 -6.65625 11.6328125 C-6.66011719 10.64410156 -6.66398438 9.65539062 -6.66796875 8.63671875 C-6.66667969 7.69699219 -6.66539062 6.75726563 -6.6640625 5.7890625 C-6.66293457 4.92087891 -6.66180664 4.05269531 -6.66064453 3.15820312 C-6.3940429 -1.01486694 -3.54443537 0.00385984 0 0 Z " fill="#000000" transform="translate(198.53125,89.8671875)"/>
<path d="M0 0 C0.66 0.33 1.32 0.66 2 1 C1.67 1.33 1.34 1.66 1 2 C1.99 2.66 2.98 3.32 4 4 C-3.9866406 10.40944687 -11.98395485 16.80332634 -20.05224609 23.10986328 C-24.45649343 26.55617102 -28.79789453 30.07475061 -33.109375 33.63671875 C-35 35 -35 35 -37 35 C-37 35.66 -37 36.32 -37 37 C-38.65 37.66 -40.3 38.32 -42 39 C-42 38.01 -42 37.02 -42 36 C-42.66 35.67 -43.32 35.34 -44 35 C-34.37674954 27.27713934 -24.71386772 19.60849018 -15 12 C-12.39515782 9.95919332 -9.79113407 7.91734763 -7.1875 5.875 C-6.58220459 5.40118896 -5.97690918 4.92737793 -5.35327148 4.43920898 C-2.58523119 2.32525639 -2.58523119 2.32525639 0 0 Z " fill="#000000" transform="translate(90,111)"/>
<path d="M0 0 C1.56047445 0.00015913 3.12095416 0.00585397 4.68139648 0.01586914 C5.91115456 0.01799156 5.91115456 0.01799156 7.16575623 0.02015686 C9.79470406 0.0257725 12.42356797 0.0383276 15.05249023 0.05102539 C16.8304838 0.05603838 18.60847869 0.06060163 20.38647461 0.06469727 C24.75434569 0.07574701 29.12215371 0.09302208 33.48999023 0.11352539 C33.98499023 1.10352539 33.98499023 1.10352539 34.48999023 2.11352539 C22.27999023 2.11352539 10.06999023 2.11352539 -2.51000977 2.11352539 C-2.51000977 5.74352539 -2.51000977 9.37352539 -2.51000977 13.11352539 C6.72999023 13.11352539 15.96999023 13.11352539 25.48999023 13.11352539 C25.48999023 13.44352539 25.48999023 13.77352539 25.48999023 14.11352539 C15.58999023 14.11352539 5.68999023 14.11352539 -4.51000977 14.11352539 C-4.51000977 0.14586872 -4.51000977 0.14586872 0 0 Z " fill="#000000" transform="translate(266.510009765625,157.886474609375)"/>
<path d="M0 0 C4.45827926 -0.0578304 8.9164628 -0.09353855 13.375 -0.125 C15.28152344 -0.15013672 15.28152344 -0.15013672 17.2265625 -0.17578125 C18.43828125 -0.18222656 19.65 -0.18867187 20.8984375 -0.1953125 C22.01911621 -0.20578613 23.13979492 -0.21625977 24.29443359 -0.22705078 C27 0 27 0 29 2 C29.22705078 3.97119141 29.22705078 3.97119141 29.1953125 6.3515625 C29.18886719 7.20234375 29.18242187 8.053125 29.17578125 8.9296875 C29.15902344 9.81914063 29.14226562 10.70859375 29.125 11.625 C29.11597656 12.5221875 29.10695313 13.419375 29.09765625 14.34375 C29.0740497 16.56276586 29.0411231 18.78125077 29 21 C28.67 21 28.34 21 28 21 C27.67 19.02 27.34 17.04 27 15 C26.67 15 26.34 15 26 15 C26 11.04 26 7.08 26 3 C24.29070312 3.03480469 22.58140625 3.06960937 20.8203125 3.10546875 C18.58855146 3.13360019 16.35677983 3.16090103 14.125 3.1875 C12.43310547 3.22520508 12.43310547 3.22520508 10.70703125 3.26367188 C9.09248047 3.27817383 9.09248047 3.27817383 7.4453125 3.29296875 C5.95281982 3.31653442 5.95281982 3.31653442 4.43017578 3.34057617 C3.62821777 3.22818604 2.82625977 3.1157959 2 3 C1.34 2.01 0.68 1.02 0 0 Z " fill="#000000" transform="translate(247,90)"/>
<path d="M0 0 C7.92 0.33 15.84 0.66 24 1 C23.67 1.99 23.34 2.98 23 4 C15.41 4 7.82 4 0 4 C0 2.68 0 1.36 0 0 Z " fill="#000000" transform="translate(193,109)"/>
<path d="M0 0 C0.99 0.33 1.98 0.66 3 1 C2.67 7.6 2.34 14.2 2 21 C1.34 21 0.68 21 0 21 C-0.19645093 17.87549468 -0.38063489 14.75038555 -0.5625 11.625 C-0.61857422 10.73554687 -0.67464844 9.84609375 -0.73242188 8.9296875 C-0.78076172 8.07890625 -0.82910156 7.228125 -0.87890625 6.3515625 C-0.9260376 5.56604004 -0.97316895 4.78051758 -1.02172852 3.97119141 C-1 2 -1 2 0 0 Z " fill="#000000" transform="translate(42,44)"/>
<path d="M0 0 C0.99 0 1.98 0 3 0 C3 2.1875 3 2.1875 2 5 C-0.50803179 6.96188534 -3.19641043 8.49921743 -6 10 C-5.11511124 5.47723524 -3.15659424 3.30690825 0 0 Z " fill="#000000" transform="translate(71,127)"/>
<path d="M0 0 C0.66 0.33 1.32 0.66 2 1 C0.10907094 2.7763273 -1.78738753 4.5460414 -3.6875 6.3125 C-4.48317383 7.06176758 -4.48317383 7.06176758 -5.29492188 7.82617188 C-8.3290163 10.63689739 -11.24288201 13.17737008 -15 15 C-15.66 14.67 -16.32 14.34 -17 14 C-11.51480629 9.0827555 -5.8602432 4.46300929 0 0 Z " fill="#000000" transform="translate(90,117)"/>
<path d="M0 0 C0.99 0 1.98 0 3 0 C2.875 2.25 2.875 2.25 2 5 C-1.0625 7.3125 -1.0625 7.3125 -4 9 C-4 4.94519369 -2.45129908 3.15167025 0 0 Z " fill="#000000" transform="translate(59,136)"/>
<path d="M0 0 C0.66 0.33 1.32 0.66 2 1 C0.75645114 2.29787866 -0.4951264 3.58806759 -1.75 4.875 C-2.44609375 5.59429687 -3.1421875 6.31359375 -3.859375 7.0546875 C-6.97698075 9.88784017 -9.9170299 11.12507784 -14 12 C-9.73412126 7.45890328 -4.96387672 3.75264754 0 0 Z " fill="#000000" transform="translate(85,115)"/>
<path d="M0 0 C0.99 0.33 1.98 0.66 3 1 C-0.465 3.97 -0.465 3.97 -4 7 C-4.33 6.01 -4.66 5.02 -5 4 C-2.6875 1.9375 -2.6875 1.9375 0 0 Z " fill="#000000" transform="translate(49,124)"/>
<path d="M0 0 C2.66735273 2.48952921 4.55746343 4.63408134 6 8 C3.50638429 6.79618552 1.31856917 5.54571278 -1 4 C-0.67 2.68 -0.34 1.36 0 0 Z " fill="#000000" transform="translate(46,171)"/>
</svg>
