<?xml version="1.0" encoding="UTF-8"?>
<svg version="1.1" xmlns="http://www.w3.org/2000/svg" width="121" height="104">
<path d="M0 0 C2.475 0.495 2.475 0.495 5 1 C7.29561809 7.59379663 9.22089072 14.24947898 11 21 C11.66 21 12.32 21 13 21 C13 21.66 13 22.32 13 23 C17.27858791 22.45579364 20.43044224 21.39753622 24.25 19.4375 C29.81998039 17.01027933 34.64149264 16.53928504 40.625 16.5625 C41.81657715 16.56624634 41.81657715 16.56624634 43.03222656 16.57006836 C48.71831004 16.71831004 48.71831004 16.71831004 51 19 C51.125 21.625 51.125 21.625 51 24 C50.34 24 49.68 24 49 24 C49 24.66 49 25.32 49 26 C45.37 27.32 41.74 28.64 38 30 C38 31.32 38 32.64 38 34 C48.45121388 36.26878522 48.45121388 36.26878522 59.0625 37.5 C63.30019768 37.80945929 66.38129392 38.61927231 70 41 C70.33 41.66 70.66 42.32 71 43 C63.46327459 43.47351154 57.62289157 42.89175934 50.625 40.0234375 C46.81972667 38.53983391 43.00153208 37.78718664 39 37 C39.41370619 40.44755157 39.83776275 43.56816261 41.0625 46.828125 C42.11789845 50.39888974 42.01358979 52.93771467 41.625 56.625 C41.27342592 60.13256471 41 63.46916588 41 67 C41.680625 67.804375 42.36125 68.60875 43.0625 69.4375 C45 72 45 72 44.796875 74.25390625 C43.85796597 77.48946042 42.57781133 80.43075574 41.1875 83.5 C38.21617512 90.19399865 35.99200654 96.9459533 34 104 C32.515 103.505 32.515 103.505 31 103 C30.80644787 95.34393782 30.6520257 88.33741969 33 81 C32.34 81 31.68 81 31 81 C29.29319053 79.37446717 27.62339805 77.70884005 26 76 C26 76.99 26 77.98 26 79 C21.01652166 79.16893147 17.57065526 79.15836498 13 77 C11.67323492 76.64141484 10.34164079 76.2981424 9 76 C9 76.66 9 77.32 9 78 C4.45194365 78.17835515 1.1205746 77.99785435 -3 76 C-3 76.66 -3 77.32 -3 78 C-3.66 78 -4.32 78 -5 78 C-5.495 79.485 -5.495 79.485 -6 81 C-6.66 81 -7.32 81 -8 81 C-8 81.66 -8 82.32 -8 83 C-8.66 83 -9.32 83 -10 83 C-10.33 85.64 -10.66 88.28 -11 91 C-12.32 90.67 -13.64 90.34 -15 90 C-15 89.34 -15 88.68 -15 88 C-15.66 88 -16.32 88 -17 88 C-17 93.28 -17 98.56 -17 104 C-17.99 104 -18.98 104 -20 104 C-20.84334329 101.77417611 -21.67478551 99.54503974 -22.5 97.3125 C-22.73847656 96.68666016 -22.97695313 96.06082031 -23.22265625 95.41601562 C-24.53041101 91.84771334 -25.49968878 88.80584882 -25 85 C-23.66666667 83.66666667 -22.33333333 82.33333333 -21 81 C-21.19015254 78.78155374 -21.41522155 77.58477845 -23 76 C-23.04063832 74.33382885 -23.042721 72.66611905 -23 71 C-24.010625 71.04125 -25.02125 71.0825 -26.0625 71.125 C-30.18076052 70.99426157 -33.11830533 70.26749214 -37 69 C-37 67.02 -37 65.04 -37 63 C-37.60328125 63.20496094 -38.2065625 63.40992188 -38.828125 63.62109375 C-40.02695312 64.02521484 -40.02695312 64.02521484 -41.25 64.4375 C-42.03890625 64.70433594 -42.8278125 64.97117187 -43.640625 65.24609375 C-45.74821988 65.91954708 -47.84753973 66.49150595 -50 67 C-50 63 -50 63 -48.5390625 61.515625 C-47.90742187 61.09796875 -47.27578125 60.6803125 -46.625 60.25 C-45.99851562 59.82203125 -45.37203125 59.3940625 -44.7265625 58.953125 C-43 58 -43 58 -41 58 C-41 57.34 -41 56.68 -41 56 C-37.77208445 53.8480563 -36.71599191 53.79913557 -33 54 C-33 54.66 -33 55.32 -33 56 C-30.65466049 56.76956136 -30.65466049 56.76956136 -28 57 C-26.2912354 55.62485459 -26.2912354 55.62485459 -25 54 C-24.34 54 -23.68 54 -23 54 C-23 53.34 -23 52.68 -23 52 C-21.89398437 51.33355469 -20.78796875 50.66710938 -19.6484375 49.98046875 C-16.46024421 47.7920993 -15.38730924 46.18166442 -14.4765625 42.42578125 C-14.16329709 40.72651386 -13.87999518 39.02148283 -13.625 37.3125 C-13.32706174 35.59999162 -13.02765374 33.88773809 -12.7265625 32.17578125 C-12.60877441 31.42208252 -12.49098633 30.66838379 -12.36962891 29.8918457 C-12 28 -12 28 -11 26 C-12.47146484 25.80083984 -12.47146484 25.80083984 -13.97265625 25.59765625 C-18.15200993 25.00060572 -22.29150806 24.23028345 -26.4375 23.4375 C-27.16904297 23.29892578 -27.90058594 23.16035156 -28.65429688 23.01757812 C-30.43646318 22.6797819 -32.21827002 22.34009012 -34 22 C-34 21.01 -34 20.02 -34 19 C-26.31918309 20.2600293 -18.65359108 21.58378433 -11 23 C-10.90912109 22.12988281 -10.90912109 22.12988281 -10.81640625 21.2421875 C-10.33983439 16.79907137 -9.78991334 12.40094577 -9 8 C-6.69 8 -4.38 8 -2 8 C-1.855625 7.05125 -1.71125 6.1025 -1.5625 5.125 C-1 2 -1 2 0 0 Z M13 32 C12.49324413 37.31010295 12.49324413 37.31010295 14.375 42 C15.96587907 43.17469914 15.96587907 43.17469914 18 43 C18.05399736 41.54207116 18.09279177 40.08357288 18.125 38.625 C18.15980469 37.40683594 18.15980469 37.40683594 18.1953125 36.1640625 C18.21370051 33.78657757 18.21370051 33.78657757 16 32 C15.01 32 14.02 32 13 32 Z M20 65 C20.99 65.99 21.98 66.98 23 68 C23.33 67.01 23.66 66.02 24 65 C22.68 65 21.36 65 20 65 Z M32 69 C33.1678266 72.81413002 33.1678266 72.81413002 36.125 75.3125 C36.74375 75.539375 37.3625 75.76625 38 76 C37.89386164 73.54775306 37.89386164 73.54775306 37 71 C34.52363988 69.62533375 34.52363988 69.62533375 32 69 Z M18 71 C18.66 71.66 19.32 72.32 20 73 C20.99 73 21.98 73 23 73 C23 73.66 23 74.32 23 75 C23.66 74.67 24.32 74.34 25 74 C24.34 73.01 23.68 72.02 23 71 C20.41619823 70.74969023 20.41619823 70.74969023 18 71 Z " fill="#000000" transform="translate(50,0)"/>
<path d="M0 0 C2.475 0.495 2.475 0.495 5 1 C7.29561809 7.59379663 9.22089072 14.24947898 11 21 C11.66 21 12.32 21 13 21 C13 21.66 13 22.32 13 23 C17.27858791 22.45579364 20.43044224 21.39753622 24.25 19.4375 C29.81998039 17.01027933 34.64149264 16.53928504 40.625 16.5625 C41.81657715 16.56624634 41.81657715 16.56624634 43.03222656 16.57006836 C48.71831004 16.71831004 48.71831004 16.71831004 51 19 C51.125 21.625 51.125 21.625 51 24 C50.34 24 49.68 24 49 24 C49 24.66 49 25.32 49 26 C42.9554179 28.22576201 36.90609881 30.40290834 30.77734375 32.38671875 C28.92798519 32.98142104 28.92798519 32.98142104 27 34 C30.3 34.66 33.6 35.32 37 36 C37.99 41.61 38.98 47.22 40 53 C34.44920563 55.92678249 28.99932374 58.1668733 23 60 C23.33 58.68 23.66 57.36 24 56 C23.01 55.34 22.02 54.68 21 54 C21.21914062 54.55300781 21.43828125 55.10601562 21.6640625 55.67578125 C22.13427759 58.92901353 21.04663188 60.40007442 19.375 63.1875 C18.61316406 64.50814453 18.61316406 64.50814453 17.8359375 65.85546875 C16 68 16 68 11 69 C11 65.37 11 61.74 11 58 C9.35 57.67 7.7 57.34 6 57 C3.07298391 56.02558734 0.23180345 54.85020925 -2.625 53.6875 C-3.388125 53.39166016 -4.15125 53.09582031 -4.9375 52.79101562 C-12.05332003 49.90099398 -12.05332003 49.90099398 -14 46 C-14.56215213 39.47903533 -13.96644814 31.93289628 -11 26 C-11.98097656 25.86722656 -12.96195313 25.73445313 -13.97265625 25.59765625 C-18.15200993 25.00060572 -22.29150806 24.23028345 -26.4375 23.4375 C-27.16904297 23.29892578 -27.90058594 23.16035156 -28.65429688 23.01757812 C-30.43646318 22.6797819 -32.21827002 22.34009012 -34 22 C-34 21.01 -34 20.02 -34 19 C-26.31918309 20.2600293 -18.65359108 21.58378433 -11 23 C-10.90912109 22.12988281 -10.90912109 22.12988281 -10.81640625 21.2421875 C-10.33983439 16.79907137 -9.78991334 12.40094577 -9 8 C-6.69 8 -4.38 8 -2 8 C-1.855625 7.05125 -1.71125 6.1025 -1.5625 5.125 C-1 2 -1 2 0 0 Z M13 32 C12.49324413 37.31010295 12.49324413 37.31010295 14.375 42 C15.96587907 43.17469914 15.96587907 43.17469914 18 43 C18.05399736 41.54207116 18.09279177 40.08357288 18.125 38.625 C18.15980469 37.40683594 18.15980469 37.40683594 18.1953125 36.1640625 C18.21370051 33.78657757 18.21370051 33.78657757 16 32 C15.01 32 14.02 32 13 32 Z " fill="#000000" transform="translate(50,0)"/>
<path d="M0 0 C0.495 1.98 0.495 1.98 1 4 C11.45121388 6.26878522 11.45121388 6.26878522 22.0625 7.5 C26.30019768 7.80945929 29.38129392 8.61927231 33 11 C33.495 11.99 33.495 11.99 34 13 C26.46327459 13.47351154 20.62289157 12.89175934 13.625 10.0234375 C9.81972667 8.53983391 6.00153208 7.78718664 2 7 C2.41370619 10.44755157 2.83776275 13.56816261 4.0625 16.828125 C5.11789845 20.39888974 5.01358979 22.93771467 4.625 26.625 C4.27342592 30.13256471 4 33.46916588 4 37 C5.0209375 38.2065625 5.0209375 38.2065625 6.0625 39.4375 C8 42 8 42 7.796875 44.25390625 C6.85796597 47.48946042 5.57781133 50.43075574 4.1875 53.5 C1.21617512 60.19399865 -1.00799346 66.9459533 -3 74 C-3.99 73.67 -4.98 73.34 -6 73 C-6.19355213 65.34393782 -6.3479743 58.33741969 -4 51 C-4.66 51 -5.32 51 -6 51 C-7.70680947 49.37446717 -9.37660195 47.70884005 -11 46 C-11 46.99 -11 47.98 -11 49 C-15.98347834 49.16893147 -19.42934474 49.15836498 -24 47 C-25.32676508 46.64141484 -26.65835921 46.2981424 -28 46 C-28 46.66 -28 47.32 -28 48 C-29.98 48 -31.96 48 -34 48 C-31 46 -31 46 -29 46 C-27.84429296 42.53287889 -27.67164707 39.4585044 -27.4375 35.8125 C-27.35371094 34.54019531 -27.26992188 33.26789062 -27.18359375 31.95703125 C-27.09271484 30.49330078 -27.09271484 30.49330078 -27 29 C-28.794375 28.690625 -28.794375 28.690625 -30.625 28.375 C-37.51158024 26.85929334 -46.9502021 24.0497979 -52 19 C-52.125 15.375 -52.125 15.375 -52 12 C-51.7525 12.5775 -51.505 13.155 -51.25 13.75 C-47.72018497 20.10366706 -42.2363713 21.79717052 -35.75 24.25 C-34.81414063 24.61351563 -33.87828125 24.97703125 -32.9140625 25.3515625 C-30.61301021 26.24380727 -28.30697388 27.12317967 -26 28 C-26 31.63 -26 35.26 -26 39 C-20.72555574 36.96198661 -20.72555574 36.96198661 -18.125 32.625 C-17.69445312 31.85414062 -17.26390625 31.08328125 -16.8203125 30.2890625 C-15.87751942 27.65822086 -16.02460674 26.5754766 -17 24 C-17.495 23.01 -17.495 23.01 -18 22 C-15.37812506 23.04874998 -14.20628639 23.64931313 -12.75 26.125 C-12.5025 26.74375 -12.255 27.3625 -12 28 C-9.08389474 27.02796491 -6.20019496 25.99065934 -3.3125 24.9375 C-2.31863281 24.57527344 -1.32476562 24.21304688 -0.30078125 23.83984375 C0.45847656 23.56269531 1.21773437 23.28554688 2 23 C1.855625 22.27554688 1.71125 21.55109375 1.5625 20.8046875 C0.60449608 15.81508377 -0.27607149 11.10732262 0 6 C-1.17369141 5.92652344 -1.17369141 5.92652344 -2.37109375 5.8515625 C-3.38300781 5.77679688 -4.39492187 5.70203125 -5.4375 5.625 C-6.44683594 5.55539063 -7.45617187 5.48578125 -8.49609375 5.4140625 C-9.32238281 5.27742188 -10.14867187 5.14078125 -11 5 C-11.495 4.01 -11.495 4.01 -12 3 C-10.75336669 2.49166409 -9.50250613 1.99368855 -8.25 1.5 C-7.55390625 1.2215625 -6.8578125 0.943125 -6.140625 0.65625 C-4 0 -4 0 0 0 Z M-17 35 C-16.01 35.99 -15.02 36.98 -14 38 C-13.67 37.01 -13.34 36.02 -13 35 C-14.32 35 -15.64 35 -17 35 Z M-5 39 C-3.8321734 42.81413002 -3.8321734 42.81413002 -0.875 45.3125 C-0.25625 45.539375 0.3625 45.76625 1 46 C0.89386164 43.54775306 0.89386164 43.54775306 0 41 C-2.47636012 39.62533375 -2.47636012 39.62533375 -5 39 Z M-19 41 C-18.34 41.66 -17.68 42.32 -17 43 C-16.01 43 -15.02 43 -14 43 C-14 43.66 -14 44.32 -14 45 C-13.34 44.67 -12.68 44.34 -12 44 C-12.66 43.01 -13.32 42.02 -14 41 C-16.58380177 40.74969023 -16.58380177 40.74969023 -19 41 Z " fill="#000000" transform="translate(87,30)"/>
<path d="M0 0 C2.95857409 -0.05379226 5.91617721 -0.09357093 8.875 -0.125 C9.71675781 -0.14175781 10.55851562 -0.15851562 11.42578125 -0.17578125 C12.23144531 -0.18222656 13.03710938 -0.18867188 13.8671875 -0.1953125 C14.61081543 -0.20578613 15.35444336 -0.21625977 16.12060547 -0.22705078 C18 0 18 0 20 2 C20.125 4.625 20.125 4.625 20 7 C19.34 7 18.68 7 18 7 C18 7.66 18 8.32 18 9 C11.9554179 11.22576201 5.90609881 13.40290834 -0.22265625 15.38671875 C-2.07201481 15.98142104 -2.07201481 15.98142104 -4 17 C-0.7 17.66 2.6 18.32 6 19 C6.99 24.61 7.98 30.22 9 36 C3.44920563 38.92678249 -2.00067626 41.1668733 -8 43 C-7.80921875 42.37480469 -7.6184375 41.74960937 -7.421875 41.10546875 C-7.28265625 40.41066406 -7.1434375 39.71585938 -7 39 C-8.84159673 36.51384442 -10.00470711 35.99843096 -13 35 C-13 32.36 -13 29.72 -13 27 C-15.86724686 27.57344937 -16.8614515 27.8614515 -19 30 C-19.33 29.01 -19.66 28.02 -20 27 C-19.34 26.01 -18.68 25.02 -18 24 C-15.525 24.99 -15.525 24.99 -13 26 C-13.33 23.03 -13.66 20.06 -14 17 C-18.95 15.02 -18.95 15.02 -24 13 C-23.01 12.67 -22.02 12.34 -21 12 C-21 11.01 -21 10.02 -21 9 C-19.35 9.33 -17.7 9.66 -16 10 C-15.67 9.34 -15.34 8.68 -15 8 C-14.29875 8.639375 -13.5975 9.27875 -12.875 9.9375 C-9.77158767 12.16386102 -7.75379861 12.65080943 -4 13 C-3.855625 11.9275 -3.71125 10.855 -3.5625 9.75 C-3.16250558 7.08337051 -2.72408076 4.58600271 -2 2 C-1.34 2 -0.68 2 0 2 C0 1.34 0 0.68 0 0 Z " fill="#000000" transform="translate(81,17)"/>
<path d="M0 0 C0.63679688 0.58394531 1.27359375 1.16789062 1.9296875 1.76953125 C5.77694382 4.56442102 9.68776302 6.05291591 14.125 7.6875 C15.34123047 8.14866211 15.34123047 8.14866211 16.58203125 8.61914062 C19.70703588 9.79941097 22.83065786 10.94355262 26 12 C26.10823773 14.24893954 26.18569645 16.49937575 26.25 18.75 C26.29640625 20.00296875 26.3428125 21.2559375 26.390625 22.546875 C26 26 26 26 24.234375 28.390625 C21.97971544 30.01461055 20.75659461 30.80915883 18 31 C15.84375 30.328125 15.84375 30.328125 13.5 29.25 C7.81359044 26.80569261 2.02361269 25.3661802 -4 24 C-4.46321804 15.07018562 -4.1428035 8.02668177 0 0 Z " fill="#000000" transform="translate(34,47)"/>
<path d="M0 0 C0.2475 0.5775 0.495 1.155 0.75 1.75 C4.27981503 8.10366706 9.7636287 9.79717052 16.25 12.25 C17.18585937 12.61351562 18.12171875 12.97703125 19.0859375 13.3515625 C21.38698979 14.24380727 23.69302612 15.12317967 26 16 C26 19.63 26 23.26 26 27 C31.27444426 24.96198661 31.27444426 24.96198661 33.875 20.625 C34.30554688 19.85414062 34.73609375 19.08328125 35.1796875 18.2890625 C36.12248058 15.65822086 35.97539326 14.5754766 35 12 C34.505 11.01 34.505 11.01 34 10 C36.62187494 11.04874998 37.79371361 11.64931313 39.25 14.125 C39.4975 14.74375 39.745 15.3625 40 16 C43.0414399 14.9861867 45.99203849 13.81823498 48.96484375 12.62109375 C51 12 51 12 55 12 C54.85433594 12.57621094 54.70867187 13.15242188 54.55859375 13.74609375 C54.20614782 15.16820075 53.88180803 16.5978448 53.59765625 18.03515625 C52.98300698 20.3636451 52.39422394 22.02204977 51 24 C47.76799488 25.57951218 44.52971684 26.36425363 41 27 C41 27.66 41 28.32 41 29 C38.03 29.495 38.03 29.495 35 30 C35.99 30.33 36.98 30.66 38 31 C38 31.66 38 32.32 38 33 C38.99 33.33 39.98 33.66 41 34 C41 34.99 41 35.98 41 37 C36.01652166 37.16893147 32.57065526 37.15836498 28 35 C26.67323492 34.64141484 25.34164079 34.2981424 24 34 C24 34.66 24 35.32 24 36 C22.02 36 20.04 36 18 36 C21 34 21 34 23 34 C24.15570704 30.53287889 24.32835293 27.4585044 24.5625 23.8125 C24.64628906 22.54019531 24.73007812 21.26789062 24.81640625 19.95703125 C24.90728516 18.49330078 24.90728516 18.49330078 25 17 C23.205625 16.690625 23.205625 16.690625 21.375 16.375 C14.48841976 14.85929334 5.0497979 12.0497979 0 7 C-0.125 3.375 -0.125 3.375 0 0 Z M35 23 C35.99 23.99 36.98 24.98 38 26 C38.33 25.01 38.66 24.02 39 23 C37.68 23 36.36 23 35 23 Z " fill="#000000" transform="translate(35,42)"/>
<path d="M0 0 C2.92730925 0.39917853 5.7963579 0.95737723 8.6875 1.5625 C11.09903157 2.09294583 11.09903157 2.09294583 14 2 C14 2.66 14 3.32 14 4 C14.66 4 15.32 4 16 4 C16.53122363 5.76774419 17.04964073 7.53934083 17.5625 9.3125 C17.85253906 10.29863281 18.14257812 11.28476562 18.44140625 12.30078125 C19 15 19 15 18 18 C15.41796875 19.3515625 15.41796875 19.3515625 12.1875 20.625 C11.12917969 21.05039062 10.07085937 21.47578125 8.98046875 21.9140625 C6.64933181 22.76341515 4.41867533 23.4729279 2 24 C2.2475 23.4225 2.495 22.845 2.75 22.25 C2.8325 21.5075 2.915 20.765 3 20 C2.35160156 19.45214844 1.70320313 18.90429688 1.03515625 18.33984375 C-1.74898459 15.13888336 -1.48498884 12.34107257 -1.3125 8.3125 C-1.30283203 7.62349609 -1.29316406 6.93449219 -1.28320312 6.22460938 C-1.16886475 1.16886475 -1.16886475 1.16886475 0 0 Z " fill="#000000" transform="translate(71,36)"/>
<path d="M0 0 C1.32 0 2.64 0 4 0 C4.103125 1.258125 4.20625 2.51625 4.3125 3.8125 C4.73120792 7.37464198 5.41343898 8.53100993 8 11 C7.59485172 14.87879664 6.308327 17.57488309 4.1875 20.8125 C3.68605469 21.60269531 3.18460938 22.39289063 2.66796875 23.20703125 C2.11753906 23.79871094 1.56710938 24.39039062 1 25 C-0.32 25 -1.64 25 -3 25 C-3 21.37 -3 17.74 -3 14 C-4.65 13.67 -6.3 13.34 -8 13 C-9.02019573 12.0206121 -10.02149805 11.02104551 -11 10 C-13.10332891 9.28552357 -13.10332891 9.28552357 -15 9 C-16.125 5.25 -16.125 5.25 -15 3 C-10.4285848 1.46989822 -5.80804712 0.84974853 -1 1 C-0.67 0.67 -0.34 0.34 0 0 Z " fill="#000000" transform="translate(64,44)"/>
<path d="M0 0 C2.27076842 -0.02699725 4.54162821 -0.04639453 6.8125 -0.0625 C8.07707031 -0.07410156 9.34164062 -0.08570312 10.64453125 -0.09765625 C14 0 14 0 17 1 C17.96070434 3.88211302 18.10581883 5.69850044 18.0625 8.6875 C18.05347656 9.49574219 18.04445313 10.30398437 18.03515625 11.13671875 C18.02355469 11.75160156 18.01195313 12.36648437 18 13 C15.31374546 13.50763865 12.62631617 14.00627197 9.9375 14.5 C9.18533203 14.64308594 8.43316406 14.78617188 7.65820312 14.93359375 C3.02259825 15.776431 -1.2889615 16.15015262 -6 16 C-6 15.01 -6 14.02 -6 13 C-5.34 12.67 -4.68 12.34 -4 12 C-3.61004898 10.13507598 -3.61004898 10.13507598 -3.5 8 C-3.34375 5.8125 -3.34375 5.8125 -3 4 C-2.34 3.67 -1.68 3.34 -1 3 C-0.67 2.01 -0.34 1.02 0 0 Z " fill="#000000" transform="translate(43,29)"/>
<path d="M0 0 C6.72045875 2.19037174 13.36724003 4.55765661 20 7 C20.10823773 9.24893954 20.18569645 11.49937575 20.25 13.75 C20.29640625 15.00296875 20.3428125 16.2559375 20.390625 17.546875 C20 21 20 21 18.109375 23.3984375 C15.92602993 25.05616246 14.72832967 25.8294794 12 26 C9.75 25.0625 9.75 25.0625 8 24 C8.99 23.67 9.98 23.34 11 23 C11 21.02 11 19.04 11 17 C11.66 17 12.32 17 13 17 C13.33 16.34 13.66 15.68 14 15 C11.03 14.67 8.06 14.34 5 14 C5 13.34 5 12.68 5 12 C2.36 12.33 -0.28 12.66 -3 13 C-3.20086443 9.28400809 -3.1519437 8.22791555 -1 5 C-0.61500109 3.34450469 -0.27206865 1.6777567 0 0 Z " fill="#000000" transform="translate(40,52)"/>
<path d="M0 0 C-0.20496094 0.56847656 -0.40992188 1.13695312 -0.62109375 1.72265625 C-2.29092669 6.5084454 -3.46376936 10.95943201 -4 16 C-6 13 -6 13 -6 8 C-8.31 12.62 -10.62 17.24 -13 22 C-12.34 22.33 -11.68 22.66 -11 23 C-14.3 22.34 -17.6 21.68 -21 21 C-21 19.02 -21 17.04 -21 15 C-21.60328125 15.20496094 -22.2065625 15.40992188 -22.828125 15.62109375 C-24.02695312 16.02521484 -24.02695312 16.02521484 -25.25 16.4375 C-26.03890625 16.70433594 -26.8278125 16.97117187 -27.640625 17.24609375 C-29.74821988 17.91954708 -31.84753973 18.49150595 -34 19 C-34 15 -34 15 -32.5390625 13.515625 C-31.90742188 13.09796875 -31.27578125 12.6803125 -30.625 12.25 C-29.99851562 11.82203125 -29.37203125 11.3940625 -28.7265625 10.953125 C-27 10 -27 10 -25 10 C-25 9.34 -25 8.68 -25 8 C-21.77208445 5.8480563 -20.71599191 5.79913557 -17 6 C-17 6.66 -17 7.32 -17 8 C-14.65466049 8.76956136 -14.65466049 8.76956136 -12 9 C-10.2912354 7.62485459 -10.2912354 7.62485459 -9 6 C-8.34 6 -7.68 6 -7 6 C-7 5.34 -7 4.68 -7 4 C-2.52941176 0 -2.52941176 0 0 0 Z " fill="#000000" transform="translate(34,48)"/>
<path d="M0 0 C3.96 0.33 7.92 0.66 12 1 C12 1.33 12 1.66 12 2 C11.37351562 2.03738281 10.74703125 2.07476563 10.1015625 2.11328125 C9.28429688 2.17902344 8.46703125 2.24476562 7.625 2.3125 C6.40683594 2.39951172 6.40683594 2.39951172 5.1640625 2.48828125 C2.62078662 2.82990528 2.62078662 2.82990528 1 6 C0.34 6 -0.32 6 -1 6 C-1 8.64 -1 11.28 -1 14 C-1.99 14.33 -2.98 14.66 -4 15 C-4 15.99 -4 16.98 -4 18 C-3.41508789 17.90912109 -2.83017578 17.81824219 -2.22753906 17.72460938 C0.43117164 17.31330546 3.09056718 16.9066075 5.75 16.5 C6.67039062 16.35691406 7.59078125 16.21382812 8.5390625 16.06640625 C9.87324219 15.86337891 9.87324219 15.86337891 11.234375 15.65625 C12.05131836 15.53056641 12.86826172 15.40488281 13.70996094 15.27539062 C16 15 16 15 20 15 C19.67 11.37 19.34 7.74 19 4 C19.99 4.33 20.98 4.66 22 5 C22.22786458 7.01822917 22.45572917 9.03645833 22.68359375 11.0546875 C22.91292961 13.07404316 22.91292961 13.07404316 24 15 C23.34 15 22.68 15 22 15 C21.01 16.485 21.01 16.485 20 18 C18.1953125 18.73046875 18.1953125 18.73046875 16.125 19.1875 C15.44695313 19.34605469 14.76890625 19.50460938 14.0703125 19.66796875 C12 20 12 20 8 20 C8 21.98 8 23.96 8 26 C8.969375 26.12375 9.93875 26.2475 10.9375 26.375 C12.4534375 26.684375 12.4534375 26.684375 14 27 C14.33 27.66 14.66 28.32 15 29 C12.83749755 28.29418323 10.67876008 27.57906886 8.5234375 26.8515625 C6.92853637 26.31334509 5.32993839 25.7858566 3.7265625 25.2734375 C0.76716431 24.2723028 -1.66825203 23.28148313 -4.0625 21.25 C-6.78500358 14.7159914 -2.14214298 6.1500234 0 0 Z " fill="#000000" transform="translate(41,27)"/>
<path d="M0 0 C2.79192205 -0.05380578 5.5828141 -0.09357669 8.375 -0.125 C9.1690625 -0.14175781 9.963125 -0.15851562 10.78125 -0.17578125 C12.85492015 -0.19335473 14.92883241 -0.10335168 17 0 C19 2 19 2 19.125 4.625 C19.08375 5.40875 19.0425 6.1925 19 7 C18.34 7 17.68 7 17 7 C17 7.66 17 8.32 17 9 C11.06818762 12.09485864 6.67959493 12.2745039 0 12 C0 8.04 0 4.08 0 0 Z " fill="#000000" transform="translate(82,17)"/>
<path d="M0 0 C4.875 0.875 4.875 0.875 6 2 C6.07258946 4.18639453 6.08373783 6.37500389 6.0625 8.5625 C6.05347656 9.76003906 6.04445313 10.95757812 6.03515625 12.19140625 C6.02355469 13.11824219 6.01195312 14.04507812 6 15 C4.35 15 2.7 15 1 15 C1.78375 15.433125 2.5675 15.86625 3.375 16.3125 C6 18 6 18 8 21 C3.50985524 22.07763474 1.66989054 22.37757467 -2.4375 20.0625 C-3.283125 19.381875 -4.12875 18.70125 -5 18 C-4.67 17.01 -4.34 16.02 -4 15 C-4.639375 14.5875 -5.27875 14.175 -5.9375 13.75 C-8.20990931 11.82189513 -8.60196439 10.88575819 -9 8 C-6.69 8 -4.38 8 -2 8 C-1.7834375 6.576875 -1.7834375 6.576875 -1.5625 5.125 C-1 2 -1 2 0 0 Z " fill="#000000" transform="translate(50,0)"/>
<path d="M0 0 C2.5 2.3125 2.5 2.3125 5 5 C5 7 5 9 5 11 C4.34 11 3.68 11 3 11 C3 12.65 3 14.3 3 16 C3.68707031 16.12117188 4.37414062 16.24234375 5.08203125 16.3671875 C5.98308594 16.53476562 6.88414063 16.70234375 7.8125 16.875 C8.70582031 17.03742187 9.59914062 17.19984375 10.51953125 17.3671875 C13 18 13 18 16 20 C10.72 19.34 5.44 18.68 0 18 C-0.28875 19.381875 -0.5775 20.76375 -0.875 22.1875 C-1.63304934 25.6203806 -2.54768863 28.78416767 -4 32 C-5.11446742 28.65659775 -4.85175268 27.31739772 -4.125 23.9375 C-3.94195312 23.05964844 -3.75890625 22.18179687 -3.5703125 21.27734375 C-3 19 -3 19 -2 17 C-2.98097656 16.86722656 -3.96195313 16.73445313 -4.97265625 16.59765625 C-9.15200993 16.00060572 -13.29150806 15.23028345 -17.4375 14.4375 C-18.16904297 14.29892578 -18.90058594 14.16035156 -19.65429688 14.01757812 C-21.43646318 13.6797819 -23.21827002 13.34009012 -25 13 C-25 12.01 -25 11.02 -25 10 C-17.31918309 11.2600293 -9.65359108 12.58378433 -2 14 C-1.93941406 13.40832031 -1.87882812 12.81664062 -1.81640625 12.20703125 C-1.37987629 8.09021792 -0.91328654 4.04455467 0 0 Z " fill="#000000" transform="translate(41,9)"/>
<path d="M0 0 C0.2475 0.5775 0.495 1.155 0.75 1.75 C4.27981503 8.10366706 9.7636287 9.79717052 16.25 12.25 C17.18585937 12.61351562 18.12171875 12.97703125 19.0859375 13.3515625 C21.38698979 14.24380727 23.69302612 15.12317967 26 16 C26 19.63 26 23.26 26 27 C26.66 27 27.32 27 28 27 C28 27.66 28 28.32 28 29 C31.3 29.66 34.6 30.32 38 31 C38 31.66 38 32.32 38 33 C38.99 33.33 39.98 33.66 41 34 C41 34.99 41 35.98 41 37 C36.01652166 37.16893147 32.57065526 37.15836498 28 35 C26.67323492 34.64141484 25.34164079 34.2981424 24 34 C24 34.66 24 35.32 24 36 C22.02 36 20.04 36 18 36 C21 34 21 34 23 34 C24.15570704 30.53287889 24.32835293 27.4585044 24.5625 23.8125 C24.64628906 22.54019531 24.73007812 21.26789062 24.81640625 19.95703125 C24.90728516 18.49330078 24.90728516 18.49330078 25 17 C23.205625 16.690625 23.205625 16.690625 21.375 16.375 C14.48841976 14.85929334 5.0497979 12.0497979 0 7 C-0.125 3.375 -0.125 3.375 0 0 Z " fill="#000000" transform="translate(35,42)"/>
<path d="M0 0 C3.88324645 4.05835305 7 8.23286182 7 14 C6.57708517 15.88685078 6.14497776 17.77368322 5.61328125 19.6328125 C4.39174257 24.34779621 3.75329104 29.19175932 3 34 C2.01 33.67 1.02 33.34 0 33 C-0.19355213 25.34393782 -0.3479743 18.33741969 2 11 C1.34 11 0.68 11 0 11 C-2.6875 8.8125 -2.6875 8.8125 -5 6 C-4.9375 3.25 -4.9375 3.25 -4 1 C-2 0 -2 0 0 0 Z " fill="#000000" transform="translate(81,70)"/>
<path d="M0 0 C4.24554795 2.85924658 4.24554795 2.85924658 6 5 C6 9.41790987 4.81734009 13.00185181 3 17 C2.34 16.01 1.68 15.02 1 14 C0.01 14.33 -0.98 14.66 -2 15 C-1.67 16.98 -1.34 18.96 -1 21 C2.63 21.99 6.26 22.98 10 24 C10 24.99 10 25.98 10 27 C5.38 26.01 0.76 25.02 -4 24 C-4.35685125 14.90029305 -4.20138413 8.14018175 0 0 Z " fill="#000000" transform="translate(34,47)"/>
<path d="M0 0 C0.680625 0.45375 1.36125 0.9075 2.0625 1.375 C5.30435186 3.16836486 8.4203441 4.08753869 12 5 C11.01 5.33 10.02 5.66 9 6 C8.67 6.66 8.34 7.32 8 8 C4.535 6.02 4.535 6.02 1 4 C3.64 5.65 6.28 7.3 9 9 C8.01 9.99 7.02 10.98 6 12 C5.62355152 14.62939205 5.39866913 17.05072472 5.3125 19.6875 C5.27833984 20.38939453 5.24417969 21.09128906 5.20898438 21.81445312 C5.12670053 23.54241387 5.0616676 25.27118072 5 27 C4.34 27 3.68 27 3 27 C3 24.36 3 21.72 3 19 C0.13275314 19.57344937 -0.8614515 19.8614515 -3 22 C-3.33 21.01 -3.66 20.02 -4 19 C-3.34 18.01 -2.68 17.02 -2 16 C0.475 16.99 0.475 16.99 3 18 C2.67 15.03 2.34 12.06 2 9 C-2.95 7.02 -2.95 7.02 -8 5 C-7.01 4.67 -6.02 4.34 -5 4 C-5 3.01 -5 2.02 -5 1 C-3.35 1.33 -1.7 1.66 0 2 C0 1.34 0 0.68 0 0 Z " fill="#000000" transform="translate(65,25)"/>
<path d="M0 0 C-0.20496094 0.56847656 -0.40992187 1.13695312 -0.62109375 1.72265625 C-2.29092669 6.5084454 -3.46376936 10.95943201 -4 16 C-6 13 -6 13 -6 8 C-8.31 12.62 -10.62 17.24 -13 22 C-12.34 22.33 -11.68 22.66 -11 23 C-12.65 22.67 -14.3 22.34 -16 22 C-15.67 20.68 -15.34 19.36 -15 18 C-15.99 17.67 -16.98 17.34 -18 17 C-17.67 15.68 -17.34 14.36 -17 13 C-16.01 13 -15.02 13 -14 13 C-14.33 11.68 -14.66 10.36 -15 9 C-14.4225 8.87625 -13.845 8.7525 -13.25 8.625 C-10.97664233 7.99351176 -9.0746471 7.11141809 -7 6 C-7 5.34 -7 4.68 -7 4 C-2.52941176 0 -2.52941176 0 0 0 Z " fill="#000000" transform="translate(34,48)"/>
<path d="M0 0 C0.99 0 1.98 0 3 0 C3 0.66 3 1.32 3 2 C3.66 2 4.32 2 5 2 C5.53122363 3.76774419 6.04964073 5.53934083 6.5625 7.3125 C6.85253906 8.29863281 7.14257812 9.28476562 7.44140625 10.30078125 C8 13 8 13 7 16 C4.41796875 17.3515625 4.41796875 17.3515625 1.1875 18.625 C0.12917969 19.05039062 -0.92914063 19.47578125 -2.01953125 19.9140625 C-4.35066819 20.76341515 -6.58132467 21.4729279 -9 22 C-8.01 20.515 -8.01 20.515 -7 19 C-6.34 19 -5.68 19 -5 19 C-4.71125 18.401875 -4.4225 17.80375 -4.125 17.1875 C-3 15 -3 15 -1 12 C-0.01 12 0.98 12 2 12 C2 10.35 2 8.7 2 7 C1.34 7 0.68 7 0 7 C0 6.34 0 5.68 0 5 C0.66 5 1.32 5 2 5 C2 4.01 2 3.02 2 2 C1.01 1.67 0.02 1.34 -1 1 C-0.67 0.67 -0.34 0.34 0 0 Z " fill="#000000" transform="translate(82,38)"/>
<path d="M0 0 C-0.33 3.96 -0.66 7.92 -1 12 C-6 12 -6 12 -7.5625 10.5625 C-8.036875 10.046875 -8.51125 9.53125 -9 9 C-11.10332891 8.28552357 -11.10332891 8.28552357 -13 8 C-14.125 4.25 -14.125 4.25 -13 2 C-11.07421875 1.3671875 -11.07421875 1.3671875 -8.6875 0.875 C-7.90761719 0.70742188 -7.12773438 0.53984375 -6.32421875 0.3671875 C-4 0 -4 0 0 0 Z " fill="#000000" transform="translate(62,45)"/>
<path d="M0 0 C2.0625 1.6875 2.0625 1.6875 4 4 C3.62094908 8.29843747 1.80969604 11.97050813 0.0625 15.875 C-2.03042536 20.5545137 -3.69233956 25.05994944 -5 30 C-5.33 30 -5.66 30 -6 30 C-5.85764543 28.27054347 -5.71095618 26.54144346 -5.5625 24.8125 C-5.48128906 23.84957031 -5.40007812 22.88664062 -5.31640625 21.89453125 C-5 19 -5 19 -4.40625 16.30078125 C-3.87938176 13.31688325 -4.78167908 11.72330558 -6 9 C-6 8.01 -6 7.02 -6 6 C-5.34 6.33 -4.68 6.66 -4 7 C-4 5.68 -4 4.36 -4 3 C-3.34 3 -2.68 3 -2 3 C-2 3.99 -2 4.98 -2 6 C-1.34 5.67 -0.68 5.34 0 5 C0 3.35 0 1.7 0 0 Z " fill="#000000" transform="translate(91,68)"/>
<path d="M0 0 C2.97 0.495 2.97 0.495 6 1 C6.10823773 3.24893954 6.18569645 5.49937575 6.25 7.75 C6.29640625 9.00296875 6.3428125 10.2559375 6.390625 11.546875 C6 15 6 15 4.1171875 17.3984375 C1.97563266 19.01843286 0.67698539 19.82153431 -2 20 C-2.66 19.34 -3.32 18.68 -4 18 C-2.68 17.34 -1.36 16.68 0 16 C0.0270043 14.54176788 0.04639787 13.08339325 0.0625 11.625 C0.07410156 10.81289062 0.08570313 10.00078125 0.09765625 9.1640625 C0.14466334 6.95062858 0.14466334 6.95062858 -1 5 C-0.72057545 3.32345271 -0.39171753 1.65391846 0 0 Z " fill="#000000" transform="translate(54,58)"/>
<path d="M0 0 C1 3 1 3 0.22265625 5.04296875 C-0.8515625 7.02864583 -1.92578125 9.01432292 -3 11 C-8.28 11 -13.56 11 -19 11 C-18 8 -18 8 -16.34179688 7.03271484 C-15.29088867 6.62593506 -15.29088867 6.62593506 -14.21875 6.2109375 C-13.45949219 5.90929688 -12.70023437 5.60765625 -11.91796875 5.296875 C-11.12003906 4.99265625 -10.32210937 4.6884375 -9.5 4.375 C-7.92631884 3.75976439 -6.35336143 3.14267324 -4.78125 2.5234375 C-4.08064453 2.25450684 -3.38003906 1.98557617 -2.65820312 1.70849609 C-0.99576481 1.11990276 -0.99576481 1.11990276 0 0 Z " fill="#000000" transform="translate(89,54)"/>
<path d="M0 0 C-0.474375 0.886875 -0.94875 1.77375 -1.4375 2.6875 C-2.79737149 5.57042756 -3.54060386 7.87610623 -4 11 C-7.70293685 11.33663062 -9.39534381 11.47736015 -12.375 9.125 C-14 7 -14 7 -14 5 C-13.34 5 -12.68 5 -12 5 C-12 4.34 -12 3.68 -12 3 C-10.5682384 2.30062798 -9.12932968 1.61587282 -7.6875 0.9375 C-6.48673828 0.36322266 -6.48673828 0.36322266 -5.26171875 -0.22265625 C-3 -1 -3 -1 0 0 Z " fill="#000000" transform="translate(81,19)"/>
<path d="M0 0 C0.99 0.33 1.98 0.66 3 1 C3.22786458 3.01822917 3.45572917 5.03645833 3.68359375 7.0546875 C3.91292961 9.07404316 3.91292961 9.07404316 5 11 C4.34 11 3.68 11 3 11 C2.01 12.485 2.01 12.485 1 14 C-5.91361111 16.47846436 -12.72633855 16.19958217 -20 16 C-20.33 15.34 -20.66 14.68 -21 14 C-18.08397391 13.49599549 -15.16727908 12.99665334 -12.25 12.5 C-11.425 12.35691406 -10.6 12.21382812 -9.75 12.06640625 C-8.95078125 11.93105469 -8.1515625 11.79570313 -7.328125 11.65625 C-6.5949707 11.53056641 -5.86181641 11.40488281 -5.10644531 11.27539062 C-3 11 -3 11 1 11 C0.67 7.37 0.34 3.74 0 0 Z " fill="#000000" transform="translate(60,31)"/>
<path d="M0 0 C0.33 0.66 0.66 1.32 1 2 C1.99 2.33 2.98 2.66 4 3 C3.7323244 6.30133235 3.4396165 7.62503298 0.875 9.8125 C-2.58445601 11.24140574 -5.29159398 11.21814153 -9 11 C-9 10.01 -9 9.02 -9 8 C-8.34 7.67 -7.68 7.34 -7 7 C-6.34444881 4.47266765 -6.34444881 4.47266765 -6 2 C-4.02 1.34 -2.04 0.68 0 0 Z " fill="#000000" transform="translate(46,34)"/>
<path d="M0 0 C0.59425781 0.13277344 1.18851562 0.26554687 1.80078125 0.40234375 C6.46591274 1.39631422 10.98704377 2.12388971 15.75 2.4375 C20.09817391 2.78239765 23.28585166 3.55648136 27 6 C27.33 6.66 27.66 7.32 28 8 C20.43383061 8.47536143 14.48997959 7.92564752 7.47265625 4.97265625 C4.98667116 3.9947569 2.62847423 3.44669956 0 3 C0 2.01 0 1.02 0 0 Z " fill="#000000" transform="translate(93,35)"/>
<path d="M0 0 C0.33 1.32 0.66 2.64 1 4 C2.65 4.33 4.3 4.66 6 5 C6 5.66 6 6.32 6 7 C4.68 7 3.36 7 2 7 C2.43086794 10.5905662 2.9392975 13.82463722 4.125 17.25 C5 20 5 20 4 23 C0.28343453 19.28343453 0.0533414 13.52022996 -0.125 8.4375 C-0.08375 7.633125 -0.0425 6.82875 0 6 C-1.17369141 5.92652344 -1.17369141 5.92652344 -2.37109375 5.8515625 C-3.38300781 5.77679688 -4.39492187 5.70203125 -5.4375 5.625 C-6.95150391 5.52058594 -6.95150391 5.52058594 -8.49609375 5.4140625 C-9.32238281 5.27742188 -10.14867188 5.14078125 -11 5 C-11.33 4.34 -11.66 3.68 -12 3 C-10.75336669 2.49166409 -9.50250613 1.99368855 -8.25 1.5 C-7.55390625 1.2215625 -6.8578125 0.943125 -6.140625 0.65625 C-4 0 -4 0 0 0 Z " fill="#000000" transform="translate(87,30)"/>
<path d="M0 0 C1.4807848 2.9615696 1.35314037 5.83506295 1.5625 9.125 C1.64628906 10.40632813 1.73007812 11.68765625 1.81640625 13.0078125 C1.87699219 13.99523437 1.93757813 14.98265625 2 16 C-4.75 16.125 -4.75 16.125 -7 15 C-3.57142857 3.57142857 -3.57142857 3.57142857 0 0 Z " fill="#000000" transform="translate(28,55)"/>
<path d="M0 0 C0.309375 0.9590625 0.309375 0.9590625 0.625 1.9375 C1.8630604 4.30991594 1.8630604 4.30991594 4.8125 4.625 C5.864375 4.74875 6.91625 4.8725 8 5 C11.07083272 6.07122072 13.27331328 7.18220885 16 9 C16 9.66 16 10.32 16 11 C9.84081232 10.64061078 4.32784028 10.28739081 -1 7 C-1.9375 3.8125 -1.9375 3.8125 -2 1 C-1.34 0.67 -0.68 0.34 0 0 Z " fill="#000000" transform="translate(34,61)"/>
<path d="M0 0 C0.99 0.33 1.98 0.66 3 1 C2.67 1.66 2.34 2.32 2 3 C2.33 3.70125 2.66 4.4025 3 5.125 C4.38564572 9.10873144 3.70101656 11.86400227 3 16 C0.53199953 14.84826645 -1.04783565 13.95216435 -3 12 C-3.125 9.375 -3.125 9.375 -3 7 C-1.68 6.67 -0.36 6.34 1 6 C0.01 5.67 -0.98 5.34 -2 5 C-1.125 1.125 -1.125 1.125 0 0 Z " fill="#000000" transform="translate(73,40)"/>
<path d="M0 0 C2.80362763 -0.22732116 4.46186517 -0.34081872 6.875 1.1875 C8 3 8 3 7.9375 5.5 C6.82057784 8.47845911 5.728252 9.42918824 3 11 C2.34 11 1.68 11 1 11 C-0.20272819 8.59454362 -0.10071472 7.05003047 -0.0625 4.375 C-0.05347656 3.55773438 -0.04445312 2.74046875 -0.03515625 1.8984375 C-0.02355469 1.27195313 -0.01195312 0.64546875 0 0 Z " fill="#000000" transform="translate(64,52)"/>
<path d="M0 0 C1.65 0 3.3 0 5 0 C5 0.99 5 1.98 5 3 C5.928125 3.2475 6.85625 3.495 7.8125 3.75 C11.16458325 5.06454245 12.1877803 5.97963384 14 9 C9.50985524 10.07763474 7.66989054 10.37757467 3.5625 8.0625 C2.716875 7.381875 1.87125 6.70125 1 6 C1.33 5.01 1.66 4.02 2 3 C1.34 2.01 0.68 1.02 0 0 Z " fill="#000000" transform="translate(44,12)"/>
<path d="M0 0 C1.65 0 3.3 0 5 0 C5 0.66 5 1.32 5 2 C5.66 2 6.32 2 7 2 C7.33 3.65 7.66 5.3 8 7 C7.01 7 6.02 7 5 7 C4.67 8.32 4.34 9.64 4 11 C5.32 11.33 6.64 11.66 8 12 C7.34 13.32 6.68 14.64 6 16 C4.35 15.67 2.7 15.34 1 15 C1 13.02 1 11.04 1 9 C1.66 9 2.32 9 3 9 C2.67039784 3.98464948 2.67039784 3.98464948 0 0 Z " fill="#000000" transform="translate(12,54)"/>
<path d="M0 0 C0.33 0 0.66 0 1 0 C1 2.31 1 4.62 1 7 C1.66 7.33 2.32 7.66 3 8 C2.34 8 1.68 8 1 8 C1 9.32 1 10.64 1 12 C2.98 12 4.96 12 7 12 C7 12.33 7 12.66 7 13 C2.15758367 14.33583899 -1.93437617 15.25328119 -7 15 C-6.01 14.67 -5.02 14.34 -4 14 C-4.04125 13.113125 -4.0825 12.22625 -4.125 11.3125 C-3.99989176 7.99713157 -3.50708755 5.93044802 -2 3 C-1.34 2.67 -0.68 2.34 0 2 C0 1.34 0 0.68 0 0 Z " fill="#000000" transform="translate(81,17)"/>
<path d="M0 0 C0.680625 0.45375 1.36125 0.9075 2.0625 1.375 C5.30435186 3.16836486 8.4203441 4.08753869 12 5 C11.01 5.33 10.02 5.66 9 6 C8.67 6.66 8.34 7.32 8 8 C4.535 6.02 4.535 6.02 1 4 C1.66 4.66 2.32 5.32 3 6 C2.67 6.99 2.34 7.98 2 9 C-2.95 7.02 -2.95 7.02 -8 5 C-7.01 4.67 -6.02 4.34 -5 4 C-5 3.01 -5 2.02 -5 1 C-3.35 1.33 -1.7 1.66 0 2 C0 1.34 0 0.68 0 0 Z " fill="#000000" transform="translate(65,25)"/>
<path d="M0 0 C5.98327582 0.30683466 10.82978287 3.23097067 16 6 C16 6.66 16 7.32 16 8 C15.43152344 7.86722656 14.86304688 7.73445313 14.27734375 7.59765625 C9.52848903 6.5115242 4.83219676 5.61687618 0 5 C-0.5625 3.0625 -0.5625 3.0625 -1 1 C-0.67 0.67 -0.34 0.34 0 0 Z " fill="#000000" transform="translate(44,21)"/>
<path d="M0 0 C8.625 -0.25 8.625 -0.25 12 2 C11.375 3.875 11.375 3.875 10 6 C6.875 7.25 6.875 7.25 4 8 C2.68 5.36 1.36 2.72 0 0 Z " fill="#000000" transform="translate(34,75)"/>
<path d="M0 0 C1.1446875 0.495 1.1446875 0.495 2.3125 1 C5.78480146 2.29201915 7.48619861 2.17126713 11 1 C11 1.66 11 2.32 11 3 C11.99 3.33 12.98 3.66 14 4 C14 4.99 14 5.98 14 7 C4.64137931 7.31724138 4.64137931 7.31724138 1 5 C0.1875 2.375 0.1875 2.375 0 0 Z " fill="#000000" transform="translate(62,72)"/>
<path d="M0 0 C2.27076842 -0.02699725 4.54162821 -0.04639453 6.8125 -0.0625 C8.07707031 -0.07410156 9.34164062 -0.08570312 10.64453125 -0.09765625 C14 0 14 0 17 1 C16.67 1.66 16.34 2.32 16 3 C15.01 3 14.02 3 13 3 C13 2.34 13 1.68 13 1 C12.34 1 11.68 1 11 1 C11 1.66 11 2.32 11 3 C10.34 3 9.68 3 9 3 C8.67 3.99 8.34 4.98 8 6 C7.566875 5.525625 7.13375 5.05125 6.6875 4.5625 C4.97690387 2.76313043 4.97690387 2.76313043 2 2 C1.87625 2.598125 1.7525 3.19625 1.625 3.8125 C1 6 1 6 -1 9 C-1 8.34 -1 7.68 -1 7 C-1.66 7 -2.32 7 -3 7 C-3 6.01 -3 5.02 -3 4 C-2.34 3.67 -1.68 3.34 -1 3 C-0.67 2.01 -0.34 1.02 0 0 Z " fill="#000000" transform="translate(43,29)"/>
<path d="M0 0 C9.41002278 -0.18451025 9.41002278 -0.18451025 14 1 C11.04816899 3.95183101 8.04488053 4.08663988 4 5 C4 5.66 4 6.32 4 7 C2.02 7 0.04 7 -2 7 C-2 6.01 -2 5.02 -2 4 C-0.68 4 0.64 4 2 4 C2 3.01 2 2.02 2 1 C1.34 0.67 0.68 0.34 0 0 Z " fill="#000000" transform="translate(72,64)"/>
<path d="M0 0 C4.22797927 3.08290155 4.22797927 3.08290155 6 5 C6.375 7.8125 6.375 7.8125 6 10 C4.35 10.33 2.7 10.66 1 11 C0.67 10.34 0.34 9.68 0 9 C-0.99 9 -1.98 9 -3 9 C-2.01 6.03 -1.02 3.06 0 0 Z " fill="#000000" transform="translate(34,47)"/>
<path d="M0 0 C7.68081691 1.2600293 15.34640892 2.58378433 23 4 C22.01 5.485 22.01 5.485 21 7 C10.605 5.02 10.605 5.02 0 3 C0 2.01 0 1.02 0 0 Z " fill="#000000" transform="translate(16,19)"/>
<path d="M0 0 C2.375 -0.125 2.375 -0.125 5 0 C7 2 7 2 7.125 4.625 C7.08375 5.40875 7.0425 6.1925 7 7 C6.34 7 5.68 7 5 7 C5 7.66 5 8.32 5 9 C-1.4 12.07692308 -1.4 12.07692308 -4.4375 11.6875 C-4.953125 11.460625 -5.46875 11.23375 -6 11 C-5.34 11 -4.68 11 -4 11 C-4 10.34 -4 9.68 -4 9 C-2.02 8.34 -0.04 7.68 2 7 C2.33 5.02 2.66 3.04 3 1 C2.01 0.67 1.02 0.34 0 0 Z " fill="#000000" transform="translate(94,17)"/>
<path d="M0 0 C-0.20496094 0.56847656 -0.40992188 1.13695312 -0.62109375 1.72265625 C-2.29092669 6.5084454 -3.46376936 10.95943201 -4 16 C-6.1519437 12.77208445 -6.20086443 11.71599191 -6 8 C-6.33 8.66 -6.66 9.32 -7 10 C-7.66 10 -8.32 10 -9 10 C-9.33 9.01 -9.66 8.02 -10 7 C-9.01 6.67 -8.02 6.34 -7 6 C-7 5.34 -7 4.68 -7 4 C-2.52941176 0 -2.52941176 0 0 0 Z " fill="#000000" transform="translate(34,48)"/>
<path d="M0 0 C0 1.98 0 3.96 0 6 C-0.33 4.68 -0.66 3.36 -1 2 C-1.7425 2.309375 -2.485 2.61875 -3.25 2.9375 C-5.50692176 3.8094925 -7.6450153 4.47667007 -10 5 C-9.34 6.32 -8.68 7.64 -8 9 C-9.65 8.67 -11.3 8.34 -13 8 C-14.125 4.25 -14.125 4.25 -13 2 C-11.07421875 1.3671875 -11.07421875 1.3671875 -8.6875 0.875 C-7.90761719 0.70742188 -7.12773438 0.53984375 -6.32421875 0.3671875 C-4 0 -4 0 0 0 Z " fill="#000000" transform="translate(62,45)"/>
<path d="M0 0 C3.96 0.33 7.92 0.66 12 1 C12 1.33 12 1.66 12 2 C11.37351562 2.03738281 10.74703125 2.07476563 10.1015625 2.11328125 C9.28429688 2.17902344 8.46703125 2.24476562 7.625 2.3125 C6.40683594 2.39951172 6.40683594 2.39951172 5.1640625 2.48828125 C2.62078662 2.82990528 2.62078662 2.82990528 1 6 C0.34 6 -0.32 6 -1 6 C-1 8.64 -1 11.28 -1 14 C-1.99 14.33 -2.98 14.66 -4 15 C-3.71459486 13.43634416 -3.42136502 11.87411566 -3.125 10.3125 C-2.96257813 9.44238281 -2.80015625 8.57226562 -2.6328125 7.67578125 C-2 5 -2 5 0 0 Z " fill="#000000" transform="translate(41,27)"/>
<path d="M0 0 C0.33 0 0.66 0 1 0 C1 2.97 1 5.94 1 9 C-3.62 9.66 -8.24 10.32 -13 11 C-12.67 10.34 -12.34 9.68 -12 9 C-11.05125 8.690625 -10.1025 8.38125 -9.125 8.0625 C-6.05030341 7.01710316 -5.14482748 6.24696212 -3 4 C-2.01 4 -1.02 4 0 4 C0 2.68 0 1.36 0 0 Z " fill="#000000" transform="translate(60,33)"/>
<path d="M0 0 C0.66 0 1.32 0 2 0 C2.37580094 5.1359462 1.1173326 8.35815546 -1 13 C-1.74719426 15.31856644 -2.37499224 17.64420153 -3 20 C-3.33 20 -3.66 20 -4 20 C-3.6143354 12.88515313 -2.60900601 6.64558134 0 0 Z " fill="#000000" transform="translate(89,78)"/>
<path d="M0 0 C7 7 7 7 7.125 9.625 C7.08375 10.40875 7.0425 11.1925 7 12 C5.86800647 11.0919838 4.74467637 10.17316174 3.625 9.25 C2.99851562 8.73953125 2.37203125 8.2290625 1.7265625 7.703125 C-0.08312318 5.91800519 -1.00117455 4.32050356 -2 2 C-1.34 1.34 -0.68 0.68 0 0 Z " fill="#000000" transform="translate(80,71)"/>
<path d="M0 0 C0.556875 0.268125 1.11375 0.53625 1.6875 0.8125 C0.3832672 4.7251984 -1.10184739 7.18560241 -4.3125 9.8125 C-5.3025 9.8125 -6.2925 9.8125 -7.3125 9.8125 C-7.625 7.625 -7.625 7.625 -7.3125 4.8125 C-3.33459945 -0.27037293 -3.33459945 -0.27037293 0 0 Z " fill="#000000" transform="translate(44.3125,55.1875)"/>
<path d="M0 0 C2.31 0.33 4.62 0.66 7 1 C7 2.98 7 4.96 7 7 C4.69 6.67 2.38 6.34 0 6 C-1 3 -1 3 0 0 Z " fill="#000000" transform="translate(47,56)"/>
<path d="M0 0 C2.97 0.99 5.94 1.98 9 3 C8.01 3.495 8.01 3.495 7 4 C6.59270772 6.32156597 6.25561323 8.6568787 6 11 C4.35 11.33 2.7 11.66 1 12 C2.65 9.36 4.3 6.72 6 4 C3.49642139 4.8345262 1.33214148 5.79371992 -1 7 C-0.67 4.69 -0.34 2.38 0 0 Z " fill="#000000" transform="translate(40,52)"/>
<path d="M0 0 C0.33 0 0.66 0 1 0 C1 5.94 1 11.88 1 18 C2.32 18.66 3.64 19.32 5 20 C4.34 20.66 3.68 21.32 3 22 C1.68 22 0.36 22 -1 22 C-1 18.37 -1 14.74 -1 11 C-1.99 10.67 -2.98 10.34 -4 10 C-3.01 10 -2.02 10 -1 10 C-0.67 6.7 -0.34 3.4 0 0 Z " fill="#000000" transform="translate(62,47)"/>
<path d="M0 0 C1.32 0 2.64 0 4 0 C4.14285714 8.57142857 4.14285714 8.57142857 3 12 C2.34 12 1.68 12 1 12 C0.03929566 9.11788698 -0.10581883 7.30149956 -0.0625 4.3125 C-0.05347656 3.50425781 -0.04445312 2.69601563 -0.03515625 1.86328125 C-0.02355469 1.24839844 -0.01195312 0.63351563 0 0 Z " fill="#000000" transform="translate(56,59)"/>
<path d="M0 0 C1.4540625 0.0309375 1.4540625 0.0309375 2.9375 0.0625 C2.9375 1.0525 2.9375 2.0425 2.9375 3.0625 C1.52271865 3.71245297 0.10558513 4.35728722 -1.3125 5 C-2.49585937 5.53947266 -2.49585937 5.53947266 -3.703125 6.08984375 C-5.82073698 6.96283279 -7.82919362 7.57588508 -10.0625 8.0625 C-9.4025 7.0725 -8.7425 6.0825 -8.0625 5.0625 C-7.4025 5.0625 -6.7425 5.0625 -6.0625 5.0625 C-5.753125 4.423125 -5.44375 3.78375 -5.125 3.125 C-3.5525 0.0725 -3.5525 0.0725 0 0 Z " fill="#000000" transform="translate(83.0625,51.9375)"/>
<path d="M0 0 C2.5 2.3125 2.5 2.3125 5 5 C5 6.66666667 5 8.33333333 5 10 C3.68 10 2.36 10 1 10 C0.67 10.66 0.34 11.32 0 12 C-0.76173392 7.6835078 -1.16063604 4.25566547 0 0 Z " fill="#000000" transform="translate(41,9)"/>
<path d="M0 0 C0.33 0 0.66 0 1 0 C1.06058594 0.68707031 1.12117188 1.37414062 1.18359375 2.08203125 C1.26738281 2.98308594 1.35117188 3.88414063 1.4375 4.8125 C1.51871094 5.70582031 1.59992188 6.59914063 1.68359375 7.51953125 C1.93489767 10.12743559 1.93489767 10.12743559 3 13 C2.67 13.99 2.34 14.98 2 16 C1.01 15.67 0.02 15.34 -1 15 C-1.02685412 12.68756208 -1.04632841 10.3750373 -1.0625 8.0625 C-1.07410156 6.77472656 -1.08570312 5.48695312 -1.09765625 4.16015625 C-1 1 -1 1 0 0 Z " fill="#000000" transform="translate(82,88)"/>
<path d="M0 0 C2.00720923 0.28674418 4.0085944 0.61866701 6 1 C4.79180633 4.624581 4.19658087 4.40170957 1 6 C0.67 6.99 0.34 7.98 0 9 C0.99 8.67 1.98 8.34 3 8 C3 8.66 3 9.32 3 10 C1.68 10.33 0.36 10.66 -1 11 C-1.02688151 9.35425434 -1.04634123 7.70838587 -1.0625 6.0625 C-1.07410156 5.14597656 -1.08570312 4.22945312 -1.09765625 3.28515625 C-1 1 -1 1 0 0 Z " fill="#000000" transform="translate(71,36)"/>
<path d="M0 0 C0.33 0.66 0.66 1.32 1 2 C1.99 2.33 2.98 2.66 4 3 C3.67 4.65 3.34 6.3 3 8 C1.68 8.33 0.36 8.66 -1 9 C-0.67 8.01 -0.34 7.02 0 6 C-0.66 6 -1.32 6 -2 6 C-2 4.35 -2 2.7 -2 1 C-1.34 0.67 -0.68 0.34 0 0 Z " fill="#000000" transform="translate(46,34)"/>
<path d="M0 0 C-0.05995322 1.79260132 -0.1487241 3.58425795 -0.25 5.375 C-0.29640625 6.37273438 -0.3428125 7.37046875 -0.390625 8.3984375 C-1 11 -1 11 -3.046875 12.3515625 C-3.69140625 12.56554687 -4.3359375 12.77953125 -5 13 C-5.33 12.34 -5.66 11.68 -6 11 C-5 9 -4 7 -3 5 C-3 3.68 -3 2.36 -3 1 C-1 0 -1 0 0 0 Z " fill="#000000" transform="translate(92,52)"/>
<path d="M0 0 C0 0.66 0 1.32 0 2 C-0.66 2 -1.32 2 -2 2 C-1.67 3.65 -1.34 5.3 -1 7 C-4.24271506 6.4409112 -5.93057424 5.5867822 -8 3 C-8 2.34 -8 1.68 -8 1 C-5.29120665 -0.35439668 -2.99066732 -0.06501451 0 0 Z " fill="#000000" transform="translate(75,23)"/>
<path d="M0 0 C0.33 0 0.66 0 1 0 C2.47075246 4.41225737 3.36884358 7.48281619 2 12 C-1.79557881 12 -3.62902617 11.49821059 -7 10 C-3.98968256 9.06576355 -3.13349732 8.95550089 0 10 C0 6.7 0 3.4 0 0 Z " fill="#000000" transform="translate(56,5)"/>
<path d="M0 0 C2.4375 0.375 2.4375 0.375 5 1 C5.33 1.66 5.66 2.32 6 3 C4.68 3.33 3.36 3.66 2 4 C1.67 5.65 1.34 7.3 1 9 C0.34 9 -0.32 9 -1 9 C-1.33 9.66 -1.66 10.32 -2 11 C-2.28571429 3.57142857 -2.28571429 3.57142857 0 0 Z " fill="#000000" transform="translate(50,0)"/>
<path d="M0 0 C6.625 -0.125 6.625 -0.125 10 1 C10 2.65 10 4.3 10 6 C9.34 6 8.68 6 8 6 C8 5.34 8 4.68 8 4 C5.69 4 3.38 4 1 4 C0.67 2.68 0.34 1.36 0 0 Z " fill="#000000" transform="translate(41,8)"/>
<path d="M0 0 C3 3.75 3 3.75 3 6 C0.03 6 -2.94 6 -6 6 C-3.375 1.125 -3.375 1.125 0 0 Z " fill="#000000" transform="translate(34,79)"/>
<path d="M0 0 C0.66 0 1.32 0 2 0 C1.67 2.97 1.34 5.94 1 9 C0.01 9.33 -0.98 9.66 -2 10 C-2.66 9.67 -3.32 9.34 -4 9 C-2.94124926 5.59687262 -1.99097846 2.98646769 0 0 Z " fill="#000000" transform="translate(25,61)"/>
<path d="M0 0 C0.33 0 0.66 0 1 0 C1.33 1.65 1.66 3.3 2 5 C4.64 5 7.28 5 10 5 C10 5.66 10 6.32 10 7 C11.32 7.33 12.64 7.66 14 8 C14 8.66 14 9.32 14 10 C12.96875 9.690625 11.9375 9.38125 10.875 9.0625 C7.61028731 8.12024552 4.35165016 7.55860836 1 7 C0 6 0 6 -0.0625 2.9375 C-0.041875 1.968125 -0.02125 0.99875 0 0 Z " fill="#000000" transform="translate(35,59)"/>
<path d="M0 0 C0.99 0.33 1.98 0.66 3 1 C2.67 1.66 2.34 2.32 2 3 C2.28112064 5.00800456 2.61067967 7.01014051 3 9 C1.02 9 -0.96 9 -3 9 C-3 8.34 -3 7.68 -3 7 C-1.68 6.67 -0.36 6.34 1 6 C0.01 5.67 -0.98 5.34 -2 5 C-1.125 1.125 -1.125 1.125 0 0 Z " fill="#000000" transform="translate(73,40)"/>
<path d="M0 0 C5.27315333 0.4452885 10.01770224 1.08373163 15 3 C14.67 3.99 14.34 4.98 14 6 C13.44828125 5.68289062 12.8965625 5.36578125 12.328125 5.0390625 C9.71522011 3.87290025 7.59420998 3.59954289 4.75 3.375 C3.85796875 3.30023438 2.9659375 3.22546875 2.046875 3.1484375 C1.03367188 3.07496094 1.03367188 3.07496094 0 3 C0 2.01 0 1.02 0 0 Z " fill="#000000" transform="translate(33,72)"/>
<path d="M0 0 C0 0.66 0 1.32 0 2 C4.455 1.505 4.455 1.505 9 1 C9.33 1.99 9.66 2.98 10 4 C4.72 4 -0.56 4 -6 4 C-5.67 3.01 -5.34 2.02 -5 1 C-2 0 -2 0 0 0 Z " fill="#000000" transform="translate(76,61)"/>
<path d="M0 0 C0 3 0 3 -0.5625 6.8125 C-1.04035396 10.40304159 -0.80029181 13.4431475 0 17 C-2 16 -2 16 -3.125 12.75 C-4.47835991 6.9498861 -4.47835991 6.9498861 -4 4 C-2 1.6875 -2 1.6875 0 0 Z " fill="#000000" transform="translate(29,81)"/>
<path d="M0 0 C0 0.66 0 1.32 0 2 C-0.66 2 -1.32 2 -2 2 C-2.33 4.64 -2.66 7.28 -3 10 C-4.32 9.67 -5.64 9.34 -7 9 C-7.33 7.68 -7.66 6.36 -8 5 C-7.01 5 -6.02 5 -5 5 C-5 4.01 -5 3.02 -5 2 C-2 0 -2 0 0 0 Z " fill="#000000" transform="translate(42,81)"/>
<path d="M0 0 C2.64 0 5.28 0 8 0 C8 0.66 8 1.32 8 2 C8.99 1.34 9.98 0.68 11 0 C13.125 0.25 13.125 0.25 15 1 C15.33 1.66 15.66 2.32 16 3 C14.08404032 3.08133791 12.16708068 3.13934367 10.25 3.1875 C8.64898437 3.23970703 8.64898437 3.23970703 7.015625 3.29296875 C3.69972145 2.97082786 2.40983327 2.22851086 0 0 Z " fill="#000000" transform="translate(105,40)"/>
<path d="M0 0 C0.99 0.495 0.99 0.495 2 1 C2 1.99 2 2.98 2 4 C2.66 4.33 3.32 4.66 4 5 C4 6.32 4 7.64 4 9 C3.34 9 2.68 9 2 9 C2 9.66 2 10.32 2 11 C3.32 11.33 4.64 11.66 6 12 C4.02 12 2.04 12 0 12 C0 8.04 0 4.08 0 0 Z " fill="#000000" transform="translate(82,17)"/>
<path d="M0 0 C1.60407328 -0.02708567 3.2082785 -0.04643483 4.8125 -0.0625 C5.70582031 -0.07410156 6.59914063 -0.08570312 7.51953125 -0.09765625 C10 0 10 0 13 1 C12.67 1.99 12.34 2.98 12 4 C12 3.34 12 2.68 12 2 C10.35 2 8.7 2 7 2 C6.67 3.32 6.34 4.64 6 6 C5.34 5.67 4.68 5.34 4 5 C4.33 3.68 4.66 2.36 5 1 C3.02 1.33 1.04 1.66 -1 2 C-0.67 1.34 -0.34 0.68 0 0 Z " fill="#000000" transform="translate(84,17)"/>
<path d="M0 0 C0.66 0.33 1.32 0.66 2 1 C2.625 4.0625 2.625 4.0625 3 7 C2.01 6.34 1.02 5.68 0 5 C0 4.34 0 3.68 0 3 C-3.16115776 4.36983503 -3.9927092 4.9890638 -6 8 C-6.66 6.68 -7.32 5.36 -8 4 C-7.01 4 -6.02 4 -5 4 C-5 3.34 -5 2.68 -5 2 C-2.625 0.9375 -2.625 0.9375 0 0 Z " fill="#000000" transform="translate(81,67)"/>
<path d="M0 0 C0.66 0.99 1.32 1.98 2 3 C4.05925139 3.72382467 4.05925139 3.72382467 6 4 C5.34 4 4.68 4 4 4 C3.67 5.98 3.34 7.96 3 10 C2.01 9.67 1.02 9.34 0 9 C-1.125 2.25 -1.125 2.25 0 0 Z " fill="#000000" transform="translate(40,16)"/>
<path d="M0 0 C2.64 0.33 5.28 0.66 8 1 C7.34 2.65 6.68 4.3 6 6 C5.01 6 4.02 6 3 6 C2.01 4.02 1.02 2.04 0 0 Z " fill="#000000" transform="translate(38,75)"/>
<path d="M0 0 C0.66 0 1.32 0 2 0 C2.103125 0.639375 2.20625 1.27875 2.3125 1.9375 C2.539375 2.618125 2.76625 3.29875 3 4 C3.99 4.33 4.98 4.66 6 5 C4.35 6.65 2.7 8.3 1 10 C-0.1577506 6.52674819 -0.06866652 3.63932552 0 0 Z " fill="#000000" transform="translate(66,53)"/>
<path d="M0 0 C0.33 0.66 0.66 1.32 1 2 C-1 5 -1 5 -2.9375 5.875 C-5 6 -5 6 -6.75 4.5625 C-7.1625 4.046875 -7.575 3.53125 -8 3 C-5.4345406 0.4345406 -3.52313332 0.45953913 0 0 Z " fill="#000000" transform="translate(59,47)"/>
<path d="M0 0 C1.98 0.495 1.98 0.495 4 1 C4 2.32 4 3.64 4 5 C5.4540625 5.185625 5.4540625 5.185625 6.9375 5.375 C8.4534375 5.684375 8.4534375 5.684375 10 6 C10.33 6.66 10.66 7.32 11 8 C9.56068883 7.54738642 8.12361001 7.08767021 6.6875 6.625 C5.88699219 6.36976562 5.08648437 6.11453125 4.26171875 5.8515625 C2 5 2 5 -1 3 C-0.67 2.01 -0.34 1.02 0 0 Z " fill="#000000" transform="translate(45,48)"/>
<path d="M0 0 C4.05606165 0.46800711 7.46588679 0.87953208 11 3 C11 3.66 11 4.32 11 5 C9.54096742 4.69078116 8.08279278 4.37751201 6.625 4.0625 C5.81289063 3.88847656 5.00078125 3.71445312 4.1640625 3.53515625 C2 3 2 3 0 2 C0 1.34 0 0.68 0 0 Z " fill="#000000" transform="translate(49,24)"/>
<path d="M0 0 C2.6875 0.875 2.6875 0.875 5 2 C4.67 3.32 4.34 4.64 4 6 C-0.75 5.125 -0.75 5.125 -3 4 C-3 3.34 -3 2.68 -3 2 C-2.01 1.34 -1.02 0.68 0 0 Z " fill="#000000" transform="translate(66,67)"/>
<path d="M0 0 C0 0.66 0 1.32 0 2 C1.32 2.33 2.64 2.66 4 3 C2.375 4.125 2.375 4.125 0 5 C-3.25 4.125 -3.25 4.125 -6 3 C-6 2.34 -6 1.68 -6 1 C-4 0 -4 0 0 0 Z " fill="#000000" transform="translate(60,22)"/>
<path d="M0 0 C0.66 0 1.32 0 2 0 C1.67 1.65 1.34 3.3 1 5 C-1.31 5.33 -3.62 5.66 -6 6 C-6.33 5.01 -6.66 4.02 -7 3 C-6.21625 2.87625 -5.4325 2.7525 -4.625 2.625 C-1.85942178 2.20882007 -1.85942178 2.20882007 0 0 Z " fill="#000000" transform="translate(11,57)"/>
<path d="M0 0 C0.99 0 1.98 0 3 0 C3.33 4.29 3.66 8.58 4 13 C1.08410391 8.62615587 -0.30254716 5.29457529 0 0 Z " fill="#000000" transform="translate(27,87)"/>
<path d="M0 0 C1.32 0 2.64 0 4 0 C3.773125 0.763125 3.54625 1.52625 3.3125 2.3125 C3.209375 3.199375 3.10625 4.08625 3 5 C4.33378575 6.8354799 4.33378575 6.8354799 6 8 C5.01 8.66 4.02 9.32 3 10 C0.59185923 6.48812804 -0.36629408 4.27343092 0 0 Z " fill="#000000" transform="translate(27,71)"/>
<path d="M0 0 C2.31 0.33 4.62 0.66 7 1 C7.33 1.99 7.66 2.98 8 4 C2.25 4.125 2.25 4.125 0 3 C0 2.01 0 1.02 0 0 Z " fill="#000000" transform="translate(42,68)"/>
<path d="M0 0 C1.65 0 3.3 0 5 0 C5 0.66 5 1.32 5 2 C5.66 2 6.32 2 7 2 C7.33 3.65 7.66 5.3 8 7 C7.01 7 6.02 7 5 7 C5 6.34 5 5.68 5 5 C4.34 5 3.68 5 3 5 C2.67 4.01 2.34 3.02 2 2 C1.34 1.34 0.68 0.68 0 0 Z " fill="#000000" transform="translate(12,54)"/>
<path d="M0 0 C2 2 2 2 2.125 5.125 C2.08375 6.07375 2.0425 7.0225 2 8 C0.35 8.33 -1.3 8.66 -3 9 C-2.01 6.03 -1.02 3.06 0 0 Z " fill="#000000" transform="translate(34,47)"/>
<path d="M0 0 C1.65 0 3.3 0 5 0 C4.67 0.66 4.34 1.32 4 2 C3.34 2 2.68 2 2 2 C1.87625 2.598125 1.7525 3.19625 1.625 3.8125 C1 6 1 6 -1 9 C-1 8.34 -1 7.68 -1 7 C-1.66 7 -2.32 7 -3 7 C-3 6.01 -3 5.02 -3 4 C-2.34 3.67 -1.68 3.34 -1 3 C-0.67 2.01 -0.34 1.02 0 0 Z " fill="#000000" transform="translate(43,29)"/>
<path d="M0 0 C1.14271055 3.42813165 0.82699932 4.30911099 -0.3125 7.625 C-0.57675781 8.42164063 -0.84101562 9.21828125 -1.11328125 10.0390625 C-2 12 -2 12 -4 13 C-3 5.57142857 -3 5.57142857 -2 2 C-1.34 2 -0.68 2 0 2 C0 1.34 0 0.68 0 0 Z " fill="#000000" transform="translate(81,17)"/>
<path d="M0 0 C0 1.98 0 3.96 0 6 C-0.33 4.68 -0.66 3.36 -1 2 C-2.1446875 2.5259375 -2.1446875 2.5259375 -3.3125 3.0625 C-6 4 -6 4 -9 3 C-9 2.34 -9 1.68 -9 1 C-5.846632 0.29925156 -3.27275026 0 0 0 Z " fill="#000000" transform="translate(62,45)"/>
<path d="M0 0 C0 0.66 0 1.32 0 2 C-1.65 2.33 -3.3 2.66 -5 3 C-4.34 3.66 -3.68 4.32 -3 5 C-5.64 5 -8.28 5 -11 5 C-11.33 4.34 -11.66 3.68 -12 3 C-10.75336669 2.49166409 -9.50250613 1.99368855 -8.25 1.5 C-7.55390625 1.2215625 -6.8578125 0.943125 -6.140625 0.65625 C-4 0 -4 0 0 0 Z " fill="#000000" transform="translate(87,30)"/>
<path d="M0 0 C3.63 0.66 7.26 1.32 11 2 C11 2.66 11 3.32 11 4 C7.37 3.67 3.74 3.34 0 3 C0 2.01 0 1.02 0 0 Z " fill="#000000" transform="translate(16,19)"/>
<path d="M0 0 C1.26237731 2.52475462 1.09856404 4.31200466 1.0625 7.125 C1.05347656 8.03507812 1.04445313 8.94515625 1.03515625 9.8828125 C1.02355469 10.58148438 1.01195312 11.28015625 1 12 C0.34 11.67 -0.32 11.34 -1 11 C-1 9.35 -1 7.7 -1 6 C-1.66 6 -2.32 6 -3 6 C-1.125 1.125 -1.125 1.125 0 0 Z " fill="#000000" transform="translate(28,55)"/>
<path d="M0 0 C1.32 0 2.64 0 4 0 C4 2.31 4 4.62 4 7 C3.01 6.34 2.02 5.68 1 5 C1 4.34 1 3.68 1 3 C0.34 3 -0.32 3 -1 3 C-0.67 2.01 -0.34 1.02 0 0 Z " fill="#000000" transform="translate(64,44)"/>
<path d="M0 0 C1.65 0 3.3 0 5 0 C5.33 1.65 5.66 3.3 6 5 C3.69 4.67 1.38 4.34 -1 4 C-0.67 2.68 -0.34 1.36 0 0 Z " fill="#000000" transform="translate(91,19)"/>
<path d="M0 0 C0.66 0 1.32 0 2 0 C2.36923077 5.41538462 2.36923077 5.41538462 0.5 8.375 C0.005 8.91125 -0.49 9.4475 -1 10 C-1.125 2.25 -1.125 2.25 0 0 Z " fill="#000000" transform="translate(89,78)"/>
<path d="M0 0 C1.48199902 0.44909061 2.96055236 0.90956564 4.4375 1.375 C5.26121094 1.63023438 6.08492188 1.88546875 6.93359375 2.1484375 C9 3 9 3 10 5 C3.9453125 4.609375 3.9453125 4.609375 2 4 C0.7421875 1.953125 0.7421875 1.953125 0 0 Z " fill="#000000" transform="translate(63,73)"/>
<path d="M0 0 C0.66 0.66 1.32 1.32 2 2 C1.67 2.66 1.34 3.32 1 4 C-0.98 4 -2.96 4 -5 4 C-5.33 3.01 -5.66 2.02 -6 1 C-3.125 0.375 -3.125 0.375 0 0 Z " fill="#000000" transform="translate(50,71)"/>
<path d="M0 0 C1.32 1.32 2.64 2.64 4 4 C3.34 4 2.68 4 2 4 C1.67 4.99 1.34 5.98 1 7 C0.01 6.01 -0.98 5.02 -2 4 C-1.34 2.68 -0.68 1.36 0 0 Z " fill="#000000" transform="translate(80,71)"/>
<path d="M0 0 C1.32 0.33 2.64 0.66 4 1 C4 2.32 4 3.64 4 5 C3.34 5 2.68 5 2 5 C2 5.66 2 6.32 2 7 C1.34 7 0.68 7 0 7 C0 4.69 0 2.38 0 0 Z " fill="#000000" transform="translate(30,57)"/>
<path d="M0 0 C7.75 -0.125 7.75 -0.125 10 1 C10 1.66 10 2.32 10 3 C10.66 3.33 11.32 3.66 12 4 C10.35 4 8.7 4 7 4 C7 3.34 7 2.68 7 2 C4.69 1.67 2.38 1.34 0 1 C0 0.67 0 0.34 0 0 Z " fill="#000000" transform="translate(106,38)"/>
<path d="M0 0 C0.33 0 0.66 0 1 0 C1 2.97 1 5.94 1 9 C-1.31 9.33 -3.62 9.66 -6 10 C-5.34 9.01 -4.68 8.02 -4 7 C-2.68 7 -1.36 7 0 7 C0 4.69 0 2.38 0 0 Z " fill="#000000" transform="translate(60,33)"/>
<path d="M0 0 C2.64 0.33 5.28 0.66 8 1 C8 2.32 8 3.64 8 5 C7.34 5 6.68 5 6 5 C6 4.34 6 3.68 6 3 C3.03 2.505 3.03 2.505 0 2 C0 1.34 0 0.68 0 0 Z " fill="#000000" transform="translate(79,35)"/>
<path d="M0 0 C0.66 0.33 1.32 0.66 2 1 C1.62875 1.5775 1.2575 2.155 0.875 2.75 C-0.29166667 5 -0.29166667 5 0.875 7.25 C1.24625 7.8275 1.6175 8.405 2 9 C0.35 8.01 -1.3 7.02 -3 6 C-2.625 3.5625 -2.625 3.5625 -2 1 C-1.34 0.67 -0.68 0.34 0 0 Z " fill="#000000" transform="translate(79,70)"/>
<path d="M0 0 C0.33 0 0.66 0 1 0 C1.36923077 5.53846154 1.36923077 5.53846154 -0.5 7.875 C-1.2425 8.431875 -1.2425 8.431875 -2 9 C-3.35439668 6.29120665 -3.06501451 3.99066732 -3 1 C-2.67 1.99 -2.34 2.98 -2 4 C-1.34 4 -0.68 4 0 4 C0 2.68 0 1.36 0 0 Z " fill="#000000" transform="translate(59,67)"/>
<path d="M0 0 C0.28875 0.61875 0.5775 1.2375 0.875 1.875 C1.93720042 4.13325765 1.93720042 4.13325765 4 6 C2.35 6.33 0.7 6.66 -1 7 C-1.33 5.02 -1.66 3.04 -2 1 C-1.34 0.67 -0.68 0.34 0 0 Z " fill="#000000" transform="translate(34,61)"/>
<path d="M0 0 C2.76276177 0.52268466 5.3260876 1.10869587 8 2 C8 2.66 8 3.32 8 4 C5.69 3.67 3.38 3.34 1 3 C0.67 2.01 0.34 1.02 0 0 Z " fill="#000000" transform="translate(76,38)"/>
<path d="M0 0 C1.485 0.99 1.485 0.99 3 2 C3.1875 4.625 3.1875 4.625 3 7 C2.34 7 1.68 7 1 7 C0.67 7.66 0.34 8.32 0 9 C0 6.03 0 3.06 0 0 Z " fill="#000000" transform="translate(98,17)"/>
<path d="M0 0 C1.32 0.66 2.64 1.32 4 2 C4 3.65 4 5.3 4 7 C3.01 7 2.02 7 1 7 C0.34 5.02 -0.32 3.04 -1 1 C-0.67 0.67 -0.34 0.34 0 0 Z " fill="#000000" transform="translate(29,97)"/>
<path d="M0 0 C0.33 0 0.66 0 1 0 C1 1.65 1 3.3 1 5 C0.34 5 -0.32 5 -1 5 C-1 5.66 -1 6.32 -1 7 C-2.98 7 -4.96 7 -7 7 C-4 5 -4 5 -2 5 C-1.34 3.35 -0.68 1.7 0 0 Z " fill="#000000" transform="translate(60,71)"/>
<path d="M0 0 C1.2077558 3.62326739 0.54311128 4.64146369 -1 8 C-2.32 7.67 -3.64 7.34 -5 7 C-3.35 4.69 -1.7 2.38 0 0 Z " fill="#000000" transform="translate(46,56)"/>
<path d="M0 0 C0.99 0.33 1.98 0.66 3 1 C3.33 3.31 3.66 5.62 4 8 C3.01 8.495 3.01 8.495 2 9 C1.34 6.03 0.68 3.06 0 0 Z " fill="#000000" transform="translate(88,44)"/>
<path d="M0 0 C0.99 0.33 1.98 0.66 3 1 C3.33 1.99 3.66 2.98 4 4 C2.02 4.33 0.04 4.66 -2 5 C-2.33 4.01 -2.66 3.02 -3 2 C-2.01 1.34 -1.02 0.68 0 0 Z " fill="#000000" transform="translate(84,31)"/>
<path d="M0 0 C0.33 0 0.66 0 1 0 C1 3.3 1 6.6 1 10 C0.34 9.67 -0.32 9.34 -1 9 C-1.75 6.125 -1.75 6.125 -2 3 C-1.34 2.01 -0.68 1.02 0 0 Z " fill="#000000" transform="translate(54,3)"/>
<path d="M0 0 C2.64 0 5.28 0 8 0 C5.53721199 2.46278801 3.29323018 2.99771255 0 4 C0 2.68 0 1.36 0 0 Z " fill="#000000" transform="translate(75,66)"/>
<path d="M0 0 C1.98 0.66 3.96 1.32 6 2 C5.01 3.485 5.01 3.485 4 5 C2.68 5 1.36 5 0 5 C0 3.35 0 1.7 0 0 Z " fill="#000000" transform="translate(61,64)"/>
<path d="M0 0 C0.99 1.32 1.98 2.64 3 4 C2.34 4.66 1.68 5.32 1 6 C0.01 5.67 -0.98 5.34 -2 5 C-2 3.68 -2 2.36 -2 1 C-1.34 0.67 -0.68 0.34 0 0 Z " fill="#000000" transform="translate(47,37)"/>
<path d="M0 0 C0.99 0.33 1.98 0.66 3 1 C3 2.65 3 4.3 3 6 C2.34 6 1.68 6 1 6 C1 5.34 1 4.68 1 4 C0.34 4 -0.32 4 -1 4 C-0.67 2.68 -0.34 1.36 0 0 Z " fill="#000000" transform="translate(57,31)"/>
<path d="M0 0 C2.62187494 1.04874998 3.79371361 1.64931313 5.25 4.125 C5.4975 4.74375 5.745 5.3625 6 6 C4.68 6.33 3.36 6.66 2 7 C1.7834375 5.824375 1.7834375 5.824375 1.5625 4.625 C1.12201075 2.03578982 1.12201075 2.03578982 0 0 Z " fill="#000000" transform="translate(69,52)"/>
<path d="M0 0 C0.99 0 1.98 0 3 0 C3 0.66 3 1.32 3 2 C2.34 2 1.68 2 1 2 C0.67 3.32 0.34 4.64 0 6 C-0.66 6 -1.32 6 -2 6 C-2.33 5.01 -2.66 4.02 -3 3 C-2.01 2.67 -1.02 2.34 0 2 C0 1.34 0 0.68 0 0 Z " fill="#000000" transform="translate(27,52)"/>
<path d="M0 0 C0.99 0 1.98 0 3 0 C2.38722388 2.96175123 1.74627478 4.38058783 0 7 C-0.66 6.67 -1.32 6.34 -2 6 C-1.34 4.02 -0.68 2.04 0 0 Z " fill="#000000" transform="translate(77,50)"/>
<path d="M0 0 C0.66 0 1.32 0 2 0 C3.625 2.5 3.625 2.5 5 5 C3.35 5.33 1.7 5.66 0 6 C0 4.02 0 2.04 0 0 Z " fill="#000000" transform="translate(63,47)"/>
<path d="M0 0 C3.875 1.75 3.875 1.75 5 4 C3.02 4 1.04 4 -1 4 C-0.67 2.68 -0.34 1.36 0 0 Z " fill="#000000" transform="translate(53,17)"/>
<path d="M0 0 C0.33 0 0.66 0 1 0 C1.66 3.3 2.32 6.6 3 10 C2.01 10 1.02 10 0 10 C0 6.7 0 3.4 0 0 Z " fill="#000000" transform="translate(56,5)"/>
</svg>
